<?xml version="1.0" encoding="utf-8"?>
<!-- Generator: Adobe Illustrator 15.0.0, SVG Export Plug-In . SVG Version: 6.00 Build 0)  -->
<!DOCTYPE svg PUBLIC "-//W3C//DTD SVG 1.1//EN" "http://www.w3.org/Graphics/SVG/1.1/DTD/svg11.dtd">
<svg version="1.1" id="Layer_1" xmlns="http://www.w3.org/2000/svg" xmlns:xlink="http://www.w3.org/1999/xlink" x="0px" y="0px"
	 width="1085px" height="295px" viewBox="0 0 1085 295" enable-background="new 0 0 1085 295" xml:space="preserve">
<g>
	<g>
		<path fill="#BC917E" d="M64.757-590.573c1.249,4.861-0.556,9.861-0.417,14.724l17.083-0.583
			c-5.218-1.088-5.554-10.39-5.183-15.205L64.757-590.573z"/>
		<g>
			<path d="M63.792-590.314c1.019,4.936-0.406,9.768-0.417,14.724c0,0.111,0.289,0.114,0.333,0.113
				c5.694-0.194,11.388-0.389,17.083-0.583c0.236-0.008,2.051-0.555,1.43-0.73c-5.615-1.592-5.324-10.548-5.015-15.105
				c0.011-0.158-0.487-0.107-0.54-0.103c-3.828,0.354-7.655,0.71-11.482,1.064c-0.468,0.044-2.117,0.84-0.852,0.723
				c3.811-0.354,7.622-0.707,11.433-1.06c-1.649,0.152-0.074,8.576,0.192,9.648c0.637,2.569,2.041,4.804,4.668,5.549
				c0.477-0.243,0.954-0.487,1.43-0.73c-3.945,0.135-7.89,0.27-11.835,0.404c-1.704,0.058-3.407,0.116-5.11,0.174
				c0.997-0.033,0.913-13.155,0.614-14.605C65.647-591.2,63.704-590.738,63.792-590.314z"/>
		</g>
	</g>
	<g>
		<path fill="#BC917E" d="M118.465-590.896c0.371,4.074-0.37,8.889-1.11,12.963l16.668-2.963c-5.187-0.43-5.557-7.408-7.038-12.223
			L118.465-590.896z"/>
		<g>
			<path d="M117.499-590.638c0.286,4.34-0.338,8.604-1.099,12.87c-0.062,0.347,0.599,0.239,0.779,0.207
				c5.556-0.987,11.112-1.976,16.668-2.963c0.139-0.024,1.633-0.655,0.967-0.756c-5.34-0.809-5.657-7.954-6.864-12.099
				c-0.09-0.309-0.872-0.104-1.05-0.057c-2.84,0.74-5.68,1.481-8.52,2.223c-1.132,0.295-0.96,0.926,0.169,0.631
				c2.84-0.74,5.68-1.481,8.52-2.223c-0.35-0.019-0.7-0.038-1.05-0.057c1.272,4.372,1.595,11.496,7.212,12.347
				c0.322-0.252,0.645-0.504,0.967-0.756c-5.556,0.987-11.112,1.976-16.668,2.963c0.259,0.069,0.519,0.139,0.779,0.207
				c0.77-4.322,1.413-8.654,1.122-13.056C119.406-591.532,117.462-591.188,117.499-590.638z"/>
		</g>
	</g>
	<g>
		<path d="M92.537-772.949c-0.741,4.445-3.705,8.52-4.444,12.964c-0.741,4.444-1.113,8.52-1.854,12.595
			c-1.852,8.889-4.074,18.148-7.408,26.297c-8.519,19.262-18.52,38.893-28.891,57.042c-13.335,23.706-20.373,53.708-23.335,80.378
			c4.814-0.742,8.519-4.445,13.334-5.557c4.444-0.741,9.26,0.37,13.704,0c11.483-1.111,21.114-1.481,32.224,1.482
			c9.261,2.221,20.744,4.444,30.004-0.371c4.074-1.853,7.037-4.385,11.853-4.015c2.593,0.37,9.26,5.134,11.482,4.134
			c0,0,0.371,0,0.74,0c-7.037-12-10.37-21.543-11.853-36.359c-0.74-8.889-4.928-146.336-0.113-154.486"/>
		<g>
			<path fill="#333535" d="M91.587-772.769c-0.775,3.522-2.4,6.693-3.671,10.048c-1.226,3.235-1.382,6.928-1.836,10.32
				c-1.277,9.546-3.726,19.091-6.923,28.172c-5.955,16.915-15.286,33.25-23.818,48.975c-8.073,14.879-15.524,29.237-20.483,45.511
				c-4.593,15.076-7.436,30.685-9.217,46.328c-0.022,0.194,0.719,0.072,0.776,0.06c2.729-0.591,5.125-1.643,7.589-2.958
				c7.201-3.845,13.596-2.036,21.109-2.74c7.001-0.657,13.969-0.872,20.968-0.094c5.643,0.627,11.102,2.367,16.68,3.379
				c8.022,1.455,16.209,1.28,23.658-2.258c3.504-1.664,7.792-4.826,11.847-3.422c1.701,0.589,3.32,1.507,4.947,2.27
				c2.141,1.003,3.81,1.426,6.1,1.426c0.161,0,1.787-0.306,1.6-0.625c-8.193-13.993-11.63-28.687-12.25-44.69
				c-0.511-13.205-0.86-26.417-1.173-39.627c-0.742-31.368-1.874-62.989-0.177-94.343c0.193-3.566-0.154-8.76,1.617-12.017
				c0.107-0.197-1.646-0.106-1.899,0.361c-1.187,2.182-1.142,5.331-1.347,7.724c-0.469,5.468-0.611,10.968-0.74,16.452
				c-0.376,16.027-0.228,32.069-0.022,48.097c0.345,26.875,0.69,53.824,2.105,80.669c0.716,13.582,5.126,26.231,11.953,37.892
				c0.533-0.208,1.066-0.417,1.6-0.625c-3.849,0-7.008-2.159-10.489-3.6c-2.667-1.104-5.686-0.279-8.274,0.647
				c-2.256,0.808-4.35,2.187-6.493,3.226c-5.66,2.741-11.644,2.877-17.739,2.213c-7.324-0.798-14.329-3.237-21.659-4.052
				c-6.005-0.668-12.086-0.339-18.091,0.127c-4.127,0.319-8.024,0.311-12.145,0.099c-1.809-0.093-4.043-0.175-5.82,0.336
				c-1.649,0.473-3.229,1.015-4.757,1.809c-1.657,0.861-3.288,1.769-4.962,2.597c-3.56,1.758-2.145-2.543-2.002-3.684
				c0.969-7.742,2.312-15.436,3.929-23.067c2.831-13.359,6.836-26.483,12.211-39.041c5.879-13.736,14.067-26.483,20.881-39.771
				c6.753-13.168,13.877-26.626,18.125-40.845c1.917-6.417,3.471-13.036,4.471-19.66c0.601-3.983,0.847-8.071,2.049-11.931
				c1.071-3.438,2.89-6.498,3.67-10.048C93.566-773.488,91.685-773.211,91.587-772.769L91.587-772.769z"/>
		</g>
	</g>
	<g>
		<g>
			<path fill="#048200" d="M145.277-734.687c-0.045,12.16-0.818,24.383-3.479,36.274c-0.174,0.776,1.781,0.475,1.937-0.223
				c2.66-11.892,3.434-24.115,3.479-36.274C147.217-735.763,145.279-735.366,145.277-734.687L145.277-734.687z"/>
		</g>
	</g>
	<g>
		<path fill="#BC917E" d="M136.984-736.279c1.112-1.853,2.223-3.334,3.334-4.815c-2.222-2.224-5.187-8.148-1.481-10.741l1.11-1.481
			c21.114,0,8.891,20.001-1.851,27.039"/>
		<g>
			<path d="M137.899-736.202c1.012-1.609,2.076-3.128,3.215-4.655c0.137-0.184,0.284-0.432,0.093-0.646
				c-2.683-3.004-5.211-11.49,1.066-11.049c4.295,0.301,8.213,2.434,8.259,7.111c0.073,7.42-7.419,14.941-13.062,18.779
				c-1.086,0.739,0.532,1.255,1.251,0.767c6.094-4.146,19.146-17.23,11.753-25.118c-2.489-2.655-9.713-4.691-12.146-1.445
				c-1.842,2.458-2.631,3.721-1.771,6.956c0.397,1.496,1.349,2.896,2.252,4.122c0.756,1.027-2.306,4.333-2.741,5.023
				C135.528-735.495,137.494-735.559,137.899-736.202L137.899-736.202z"/>
		</g>
	</g>
	<g>
		<path fill="#125E72" d="M64-575.711c8,0,19.262-1.852,27.04,0.37c-2.593,5.557-21.04,2.224-27.04,2.224V-575.711z"/>
		<g>
			<path d="M63.384-575.336c5.399-0.066,10.778-0.593,16.176-0.716c3.123-0.072,6.224,0.148,9.293,0.721
				c1.352,1.565,0.485,2.379-2.599,2.44c-1.517,0.32-3.167,0.348-4.707,0.386c-4.013,0.099-8.044-0.321-12.037-0.671
				c-2.993-0.262-4.529,0.539-4.529-2.794c0-0.271-1.932-0.006-1.932,0.518c0,0.864,0,1.729,0,2.594
				c0,0.113,0.287,0.115,0.334,0.116c6.082,0.108,12.107,1.256,18.209,0.949c3.383-0.17,8.45-0.419,10.413-3.726
				c0.07-0.117-0.073-0.162-0.153-0.183c-8.899-2.222-18.178-0.495-27.206-0.385C64.268-576.081,62.458-575.324,63.384-575.336z"/>
		</g>
	</g>
	<g>
		<path fill="#125E72" d="M115.872-577.748c11.112,2.593,20.002,5.186,30.002-1.852c-8.519-2.223-21.111-1.852-29.632,0.369"/>
		<g>
			<path d="M115.543-577.024c11.087,2.604,20.951,4.503,30.977-2.113c0.63-0.415,0.27-1.044-0.318-1.186
				c-9.765-2.346-20.42-1.968-30.145,0.406c-1.208,0.295-0.832,1.666,0.368,1.373c9.408-2.296,19.678-2.6,29.119-0.332
				c-0.106-0.396-0.212-0.791-0.318-1.186c-9.357,6.174-18.866,3.977-29.027,1.59C115.226-578.701,114.271-577.323,115.543-577.024
				L115.543-577.024z"/>
		</g>
	</g>
	<g>
		<path fill="#BC917E" d="M140.33-815.046c-0.047,4.139,1.356,8.064,0.567,12.232c-1.325,6.985-11.227,6.391-15.526,3.079
			c-3.925-3.022-5.322-5.872-4.469-10.763c0.671-3.836,3.36-7.479,6.176-10.106c2.438-2.274,4.663-2.327,7.879-2.167
			c2.144,0.106,5.447,0.966,5.795,3.001C140.976-818.452,140.345-816.45,140.33-815.046z"/>
		<g>
			<path d="M139.35-814.979c0.136,4.833,2.793,11.94-1.479,15.597c-3.573,3.059-9.686,0.767-12.767-1.745
				c-5.247-4.278-3.639-10.943-0.228-15.836c2.471-3.544,5.404-5.25,9.751-5.086c1.939,0.073,5.097,0.663,5.174,3.443
				C139.835-817.432,139.456-816.153,139.35-814.979c-0.092,1.024,1.879,0.77,1.961-0.135c0.242-2.674,1.413-5.976-1.757-7.326
				c-3.004-1.28-6.377-1.408-9.546-0.708c-7.009,1.547-11.645,12.161-9.813,18.521c1.73,6.01,9.373,8.592,14.917,7.812
				c9.415-1.325,6.383-11.758,6.2-18.298C141.281-816.154,139.325-815.875,139.35-814.979z"/>
		</g>
	</g>
	<g>
		<g>
			<path d="M135.512-815.128c-0.358,0.128-0.834,0.314-1.003,0.689c-0.125,0.276,0.011,0.726,0.079,1
				c0.088,0.357,0.489,0.433,0.802,0.416c0.295-0.015,0.598-0.077,0.868-0.201c0.096-0.038,0.188-0.083,0.277-0.135
				c0.467-0.264-0.479,0.223-0.896,0.134c0.391,0.083,1.458-0.122,1.566-0.612c0.137-0.62,0.052-1.194-0.72-1.184
				c-0.978,0.012-2.945,1.072-1.606,2.055c0.428,0.314,1.693,0.055,1.863-0.499c0.102-0.333,0.172-0.676,0.185-1.024
				c0.006-0.167-0.09-0.3-0.253-0.361c-0.125-0.042-0.254-0.059-0.386-0.053c-0.026,0-0.053-0.001-0.079-0.001
				c-0.32,0.028-0.322,0.028-0.006-0.001c-0.429-0.097-1.028,0.104-1.366,0.366c-0.331,0.256-0.209,0.492,0.154,0.574
				c0.109,0.032,0.221,0.045,0.335,0.039c0.264-0.024,0.322-0.028,0.175-0.014c-0.169-0.041-0.339-0.083-0.509-0.124
				c0.103,0.116-0.129,0.743-0.171,0.882c0.621-0.167,1.242-0.333,1.863-0.499c-0.165-0.122-0.393-0.258-0.329-0.492
				c0.108-0.395-1.142-0.309-1.04,0.128c0.037,0.158,0.003,0.335-0.032,0.491c0.522-0.204,1.044-0.408,1.566-0.612
				c-0.495-0.105-1.063,0.11-1.479,0.367c0.907,0.297,1.29,0.245,1.148-0.158c-0.051-0.123-0.052-0.274-0.074-0.403
				c-0.017-0.098-0.035-0.194-0.046-0.292c0.003,0.029-0.535,0.301-0.165,0.169c0.174-0.062,0.845-0.408,0.541-0.68
				C136.466-815.44,135.842-815.246,135.512-815.128L135.512-815.128z"/>
		</g>
	</g>
	<g>
		<path d="M93.278-774.801c-1.112-8.52,5.926-18.52,9.26-25.557c3.704-7.78,5.186-16.298,8.89-23.708
			c4.444-8.148,14.075-19.63,24.446-18.52c9.631,1.112,11.111,13.334,10.742,21.113c-7.038,1.481-19.262,2.592-16.669,12.223
			c3.334-0.371,7.408,0,10.742-0.741c2.592,14.816,6.296,32.225,5.185,47.041c-4.814,0-5.185-7.038-11.481-7.408
			c-2.223,0-3.334,1.853-6.298,1.11c-2.222-0.37-4.074-3.332-6.667-4.073c-5.556-1.481-8.89,2.963-14.445,2.592
			c-5.186-0.37-9.26-2.962-15.187-2.592c-0.74,0,0-0.37,0.37-1.112"/>
		<g>
			<path fill="#4C4848" d="M94.244-775.06c-0.56-6.938,2.837-13.243,6.011-19.177c2.877-5.378,5.234-10.692,7.138-16.501
				c3.954-12.068,11.459-30.759,26.818-31.356c6.407-0.249,9.492,5.762,10.742,11.075c0.515,2.191,0.658,4.469,0.737,6.71
				c0.109,3.124-1.622,2.793-4.102,3.29c-6.484,1.298-14.335,3.953-12.606,12.028c0.071,0.332,0.599,0.315,0.839,0.296
				c2.06-0.167,4.104-0.15,6.164-0.255c2.798-0.142,3.768-0.595,4.331,2.551c0.83,4.642,1.677,9.28,2.444,13.933
				c1.615,9.787,2.77,19.704,2.147,29.632c0.446-0.227,0.892-0.455,1.338-0.682c-4.144-0.41-5.196-5.761-9.038-6.911
				c-1.245-0.372-2.685-0.747-3.982-0.302c-1.735,0.596-3.484,1.31-5.45,0.624c-1.383-0.483-3.03-2.281-4.342-3.161
				c-3.013-2.021-7.242-0.525-10.222,0.649c-4.71,1.855-8.398,1.027-12.957-0.226c-1.494-0.411-2.983-0.696-4.514-0.926
				c-1.013-0.153-3.521,0.601-2.672-0.634c0.517-0.752-1.435-0.599-1.805-0.062c-0.225,0.332-0.454,0.662-0.685,0.989
				c-0.125,0.177-0.078,0.425,0.136,0.509c2.046,0.801,4.695,0.36,6.906,0.831c3.029,0.646,5.898,1.623,8.99,1.973
				c1.594,0.18,3.4-0.181,4.898-0.702c1.244-0.433,2.464-0.912,3.689-1.395c5.807-2.287,6.453,0.163,9.99,2.434
				c4.454,2.859,8.984-1.495,13.014,1.937c2.589,2.205,3.597,5.139,7.3,5.505c0.359,0.036,1.308-0.198,1.338-0.682
				c0.998-15.894-2.44-31.622-5.186-47.184c-0.056-0.318-0.613-0.335-0.839-0.296c-3.084,0.535-6.168,0.371-9.272,0.622
				c-1.569,0.127-0.921-2.809-0.783-3.588c0.284-1.6,1.577-2.791,2.82-3.678c3.621-2.583,8.935-2.919,13.171-3.779
				c0.247-0.05,0.82-0.297,0.832-0.62c0.257-7.083-0.461-15.67-6.778-20.065c-6.853-4.768-16.154,1.019-21.205,5.643
				c-8.587,7.862-11.674,18.292-15.295,28.961c-3.607,10.627-12.943,20.736-11.993,32.506
				C92.366-773.878,94.305-774.298,94.244-775.06L94.244-775.06z"/>
		</g>
	</g>
	<g>
		<path d="M118.095-757.393c-0.372,8.52,2.962,16.67,5.556,24.447c1.48,4.814,1.112,7.777,5.556,4.814
			c1.852-1.111,7.407-8.52,8.891-10.371c0,3.704,0.74,8.149,0.37,12.224c0,5.556-1.325,5.927-6.14,9.259
			C125.66-711.833,115-696.832,111-706.646v-0.371c-3-8.89-6.453-16.668-7.194-25.928c-1.11-10.742,0.292-21.484,0.292-31.855"/>
		<g>
			<path fill="#353434" d="M117.119-757.308c-0.092,6.812,1.679,13.16,3.84,19.57c0.983,2.917,1.938,5.802,2.739,8.774
				c0.206,0.764,0.619,2.11,1.494,2.425c5.383,1.938,11.172-8.503,13.706-11.709c-0.592-0.057-1.184-0.113-1.776-0.169
				c0.111,4.52,0.451,8.984,0.338,13.509c-0.108,4.345-3.712,5.694-6.649,8.077c-3.35,2.717-13.82,16.367-18.266,11.506
				c-2.064-2.257-2.409-7.214-3.36-10.039c-1.605-4.768-3.22-9.475-4.146-14.432c-2.142-11.471-0.136-23.525-0.044-35.09
				c0.007-0.968-1.945-0.641-1.951,0.17c-0.106,13.47-2.229,27.111,1.153,40.355c0.823,3.224,1.982,6.368,3.057,9.514
				c0.834,2.441,2.458,5.688,2.458,8.285c0,2.269,2.864,3.782,4.77,3.829c6.192,0.153,12.266-8.337,16.221-12.07
				c2.613-2.467,6.489-3.908,8.122-7.258c2.179-4.472,0.367-11.774,0.25-16.526c-0.021-0.861-1.393-0.654-1.776-0.169
				c-1.313,1.662-10.086,14.004-11.667,9.275c-3-8.979-6.689-18.413-6.559-27.997C119.083-758.445,117.13-758.12,117.119-757.308
				L117.119-757.308z"/>
		</g>
	</g>
	<g>
		<path fill="#7CA50C" d="M102.907-682.201c9.26,0.74,18.521-4.445,26.299-9.63c2.964-1.482,5.557-3.704,8.149-5.927
			c1.852-1.111,4.444-4.074,4.814-2.223"/>
		<g>
			<path d="M102.574-681.496c7.001,0.286,13.23-1.885,19.38-5.082c1.794-0.934,19.827-12.205,19.333-12.976
				c0.475,0.74,2.315,0,1.768-0.853c-0.119-0.186-0.237-0.371-0.356-0.556c-0.156-0.243-0.538-0.309-0.799-0.284
				c-1.32,0.126-2.146,0.765-3.196,1.563c-3.282,2.497-6.287,5.277-9.925,7.279c-8.317,4.577-15.506,9.907-25.537,9.498
				C102.302-682.944,101.267-681.549,102.574-681.496L102.574-681.496z"/>
		</g>
	</g>
	<g>
		<path fill="#125E72" d="M103.277-682.201c0,10.741,2.595,21.112,5.187,31.484c3.333,13.705,16.667-3.334,23.335-8.148
			c6.668-4.816,19.631-9.261,20.743-17.04c1.48-9.629-8.889-17.037-10.742-25.558"/>
		<g>
			<path d="M102.312-681.942c0.114,8.207,1.542,16.183,3.39,24.158c0.895,3.86,1.184,10.487,5.306,12.519
				c5.716,2.816,13.996-6.752,17.369-9.857c7.214-6.642,18.737-9.379,24.066-17.877c5.879-9.376-7.486-20.388-9.677-28.721
				c-0.179-0.682-2.112-0.167-1.932,0.518c2.199,8.367,9.957,14.16,10.867,22.984c1.033,10.003-13.974,14.539-20.503,19.064
				c-3.999,2.771-14.44,16.262-19.692,12.321c-1.676-1.258-2.068-4.109-2.533-5.972c-0.761-3.048-1.491-6.102-2.174-9.167
				c-1.504-6.748-2.459-13.569-2.556-20.486C104.235-683.074,102.301-682.697,102.312-681.942L102.312-681.942z"/>
		</g>
	</g>
	<g>
		<g>
			<path fill="#048200" d="M104.622-683.404c0.306-20.54-1.671-41.375-4.882-61.651c-1.629-10.287-1.024-25.534,14.052-22.243
				c9.138,1.995,18.409,9.896,25.266,15.868c0.598,0.521,2.417-0.258,1.778-0.813c-7.439-6.481-16.261-13.519-25.903-16.257
				c-6.64-1.886-14.529,0.716-16.866,7.715c-3.186,9.54,0.558,21.386,1.677,31.041c1.792,15.452,3.163,30.956,2.93,46.525
				C102.661-682.282,104.61-682.627,104.622-683.404L104.622-683.404z"/>
		</g>
	</g>
</g>
<g>
	<path fill="#993333" d="M484-658.872c0,5.155-4.542,8.872-9.697,8.872h-33.144c-5.155,0-9.159-3.717-9.159-8.872v-0.381
		c0-5.155-1.15-9.747,4.004-9.747h38.299c5.155,0,9.697,4.592,9.697,9.747V-658.872z"/>
	<path fill="#993333" d="M438-684.477c0,1.368-1.108,2.477-2.476,2.477h-0.049c-1.367,0-2.476-1.108-2.476-2.477v-33.047
		c0-1.368,1.108-2.477,2.476-2.477h0.049c1.367,0,2.476,1.108,2.476,2.477V-684.477z"/>
	<circle cx="579.386" cy="-603.822" r="34.033"/>
	<circle cx="305.854" cy="-603.822" r="34.033"/>
	<path d="M262-672v-94.875c0,0-0.085-43.125,44.107-43.125C350.299-810,514-810,514-810v26.108c0,0-114.316-2.368-162.998-1.015
		c-9.143,0.254-9.114,10.229-9.114,10.229L342.168-672H262z"/>
	<path d="M514-809.543c0,0,53.449,41.543,56.496,137.543C528.59-672,514-672,514-672V-809.543z"/>
	<path fill="#FFCC33" d="M342-666v43.891c0,0,1.445,19.635,28.15,19.049c26.413-0.579,126.401-0.579,126.401-0.579
		s17.448,0,17.448-17.708c0-25.904,0-44.652,0-44.652h56.496c0,0,4.572,68-56.383,68C453.159-598,262-598,262-598v-68H342z"/>
	<path fill="#999933" d="M266.486-594H345c0,0,4.096-19.492-18.433-19.183c-13.683,0.188-45.061-0.24-45.061-0.24
		S266.486-613,266.486-594z"/>
	<path fill="#FFCC33" d="M539.723-603.64c0,0,0-55.296,60.235-39.549C629.648-635.426,539.723-603.64,539.723-603.64L539.723-603.64
		z"/>
	<rect x="432" y="-787" width="4" height="183"/>
	<rect x="262" y="-672" fill="#33CC33" width="80" height="6"/>
	<rect x="514" y="-672" fill="#33CC33" width="56" height="6"/>
	<path fill="#33FFFF" d="M514-783.892V-698h46.592C560.592-698,545-776.272,514-783.892z"/>
	<rect x="435" y="-651" width="33" height="47"/>
	<rect x="342" y="-666" fill="#999999" width="90" height="7"/>
</g>
<g>
	<g>
		<g>
			<path fill="#CCCCCC" d="M849.018-511H39.596C23.432-511,10-497.97,10-481.805V-275h869v-206.805
				C879-497.97,865.182-511,849.018-511z"/>
		</g>
		<path fill="#CCFFFF" d="M169-374.272C169-358.105,155.896-345,139.73-345H73.27C57.104-345,44-358.105,44-374.272v-75.455
			C44-465.895,57.104-479,73.27-479h66.461c16.165,0,29.27,13.105,29.27,29.272V-374.272z"/>
		<path fill="#CCFFFF" d="M315-374.272C315-358.105,301.896-345,285.729-345h-66.459C203.104-345,190-358.105,190-374.272v-75.455
			C190-465.895,203.104-479,219.271-479h66.459C301.896-479,315-465.895,315-449.728V-374.272z"/>
		<path fill="#CCFFFF" d="M457-374.272C457-358.105,443.896-345,427.73-345H361.27c-16.165,0-29.27-13.105-29.27-29.272v-75.455
			C332-465.895,345.104-479,361.27-479h66.461c16.165,0,29.27,13.105,29.27,29.272V-374.272z"/>
		<path fill="#CCFFFF" d="M595-374.272C595-358.105,581.896-345,565.729-345h-66.459C483.104-345,470-358.105,470-374.272v-75.455
			C470-465.895,483.104-479,499.271-479h66.459C581.896-479,595-465.895,595-449.728V-374.272z"/>
		<path fill="#CCFFFF" d="M735-374.272C735-358.105,721.895-345,705.729-345h-66.459C623.104-345,610-358.105,610-374.272v-75.455
			C610-465.895,623.104-479,639.271-479h66.459C721.895-479,735-465.895,735-449.728V-374.272z"/>
		<rect x="810" y="-467" fill="#CCFFFF" width="69" height="141"/>
		<circle cx="778.577" cy="-167.41" r="63.698"/>
		<circle cx="142.44" cy="-167.41" r="63.698"/>
		<path fill="#6699CC" d="M10-275v92.051C10-166.784,23.432-154,39.596-154h33.925c-0.894-5-1.368-8.87-1.368-13.57
			c0-38.23,30.989-69.139,69.215-69.139c38.229,0,69.22,30.869,69.22,69.098c0,4.702-0.474,8.611-1.368,13.611h501.508
			c-0.893-5-1.367-8.87-1.367-13.57c0-38.23,30.988-69.139,69.219-69.139c38.227,0,69.216,30.869,69.216,69.098
			c0,4.702-0.473,8.611-1.367,13.611h2.591C865.182-154,879-166.784,879-182.949V-275H10z"/>
		<rect x="219" y="-313" fill="#CCFFFF" width="479" height="146"/>
		<text transform="matrix(1 0 0 1 232.3398 -275.1104)"><tspan x="0" y="0" fill="#DBD175" font-family="'MyriadPro-Bold'" font-size="25.6934">Luxurious Spacious 3BHK Apartments</tspan><tspan x="0" y="30.832" fill="#DBD175" font-family="'MyriadPro-Bold'" font-size="25.6934">Right next to your workplace..</tspan></text>
	</g>
</g>
<rect fill="#90C49E" width="1085" height="295"/>
<g>
	<path fill="#775857" d="M6.445,270.041c29.998,3,74.996-29.998,100.494-41.998c18-8.999,35.999-17.999,52.498-26.998
		c28.498-16.5,52.497-43.498,82.496-50.998c17.999-4.5,31.498-1.5,47.997,7.5c14.999,8.999,43.498,38.998,61.497,40.498
		s29.998-25.499,55.497-17.999c17.999,5.999,37.498,20.999,55.497,26.998c23.999,7.5,41.998,28.499,67.497,25.499
		c17.999-4.5,34.498-23.999,52.497-25.499c19.499-1.5,31.498,12,49.498,16.499c26.998,4.5,35.998-11.999,58.497-17.999
		c28.498-8.999,79.495-2.999,107.994-2.999c56.997,2.999,106.495,23.998,163.492,7.499c32.998-7.499,65.996-25.499,95.995-38.998
		c41.998-17.999,64.496-20.999,101.994,7.5c34.498,26.998,88.496,73.496,136.494,67.496c46.497-5.999,67.496-68.996,107.994-70.496
		c29.998,0,68.996,22.499,97.495,31.498c28.499,7.5,58.497,12,86.995,22.499"/>
	<g>
		<path fill="#313244" d="M6.09,270.667c15.15,1.165,29.9-4.711,43.402-10.938c16.727-7.712,32.358-17.57,48.492-26.402
			c19.498-10.673,39.79-19.905,59.372-30.448c18.166-9.779,33.705-23.734,50.58-35.463c19.876-13.814,42.989-23.511,67.178-15.72
			c17.085,5.502,29.914,18.567,43.683,29.425c9.782,7.713,22.199,18.119,35.469,17.543c12.244-0.532,22.177-12.528,32.914-17.144
			c11.419-4.907,22.38-0.178,32.722,4.944c10.297,5.1,20.045,11.232,30.346,16.334c8.619,4.269,17.883,6.799,26.446,11.226
			c8.854,4.576,17.172,10.073,26.233,14.26c14.845,6.856,27.852,6.363,41.882-1.629c8.746-4.982,16.659-11.22,25.753-15.618
			c12.697-6.141,25.408-2.838,37.41,3.013c15.394,7.505,28.904,13.949,46.261,8.733c6.803-2.044,12.96-5.951,19.128-9.371
			c8.818-4.889,18.184-8.08,28.095-9.874c19.377-3.507,39.597-2.506,59.168-1.721c19.246,0.772,38.62,0.943,57.762,3.128
			c45.187,5.158,89.35,17.813,134.879,7.939c23.014-4.991,44.818-13.483,66.189-23.222c21.235-9.677,41.932-20.839,64.318-27.711
			c19.398-5.954,37.896-4.792,56,4.489c17.036,8.732,31.488,22.414,46.616,33.976c28.917,22.1,63.233,46.288,101.11,46.779
			c21.938,0.285,39.559-12.029,54.774-26.605c16.304-15.619,31.472-37.405,54.402-43.387c14.76-3.85,31.891,2.395,45.719,7.256
			c15.004,5.274,29.472,11.963,44.232,17.859c32.661,13.049,68.529,15.847,101.664,27.812c0.715,0.258,2.269-0.772,1.148-1.178
			c-22.859-8.255-46.664-13.005-70.301-18.416c-20.635-4.724-39.421-12.787-58.939-20.813c-17.605-7.24-36.189-14.475-55.47-14.805
			c-11.62-0.199-22.627,6.448-31.395,13.385c-24.471,19.356-42.038,50.883-74.999,56.846c-20.359,3.683-41.623-3.956-59.614-12.797
			c-18.137-8.913-34.768-20.78-50.82-32.962c-27.048-20.525-53.087-46.841-89.801-41.913c-18.612,2.498-36.469,11.05-53.278,18.928
			c-22.749,10.662-45.31,21.814-69.337,29.372c-24.793,7.798-49.742,11.039-75.674,9.258c-23.295-1.6-46.258-6.487-69.329-9.847
			c-19.957-2.907-39.867-3.302-59.965-4.221c-18.72-0.855-37.502-1.649-56.214-0.225c-15.587,1.188-30.022,5.106-43.679,12.769
			c-8.48,4.758-16.607,9.073-26.457,10.054c-12.748,1.271-23.733-5.037-34.683-10.543c-14.907-7.495-28.789-8.79-43.75-0.929
			c-7.704,4.048-14.706,9.366-22.167,13.831c-13.01,7.786-25.545,7.177-39.127,1.332c-8.417-3.622-16.175-8.736-24.178-13.156
			c-9.159-5.06-19.087-7.87-28.503-12.329c-16.645-7.882-33.511-22.515-52.508-23.661c-12.768-0.771-23.019,8.366-33.07,14.759
			c-16.752,10.653-32.596-2.451-45.872-12.775c-20.124-15.647-38.086-33.494-65.496-32.662
			c-30.654,0.931-55.624,25.083-78.938,42.027c-26.439,19.216-57.491,30.884-85.842,46.87
			c-13.003,7.333-25.845,14.932-39.286,21.452C37.262,264.326,22.083,270.59,6.8,269.415C5.958,269.351,4.781,270.566,6.09,270.667
			L6.09,270.667z"/>
	</g>
</g>
<polyline fill="#313244" points="-28,239 -7,239 -7,225.935 5,213.361 5,191 20.045,191 20.464,93 59.848,93 59.623,131 75.369,131 
	76,150.187 76,171.029 106,170.889 106,148.816 105.987,130.187 127,128.929 127,150.073 127,166 127,198.272 145,198.081 
	145,171.029 176,170.889 176,148.816 195.086,129.558 212,148.816 212,194.081 278,194.331 278,156.57 302,156.779 302,141 
	346.122,141 401.446,142 442,142 442,174.802 473.904,173.321 476.84,140 514,140 514,175 531,175 531,200 579,200 579,236 "/>
<g>
	<path fill="#333333" d="M188,179.334c0,1.473-1.192,2.666-2.664,2.666h-6.672c-1.472,0-2.664-1.193-2.664-2.666V14.666
		c0-1.473,1.192-2.666,2.664-2.666h6.672c1.472,0,2.664,1.193,2.664,2.666V179.334z"/>
	<path fill="#993300" d="M222,203.335c0,1.472-1.193,2.665-2.665,2.665h-84.67c-1.472,0-2.665-1.193-2.665-2.665v-32.67
		c0-1.472,1.193-2.665,2.665-2.665h84.67c1.472,0,2.665,1.193,2.665,2.665V203.335z"/>
	<g>
		<path d="M230,207.665c0-1.472-1.193-2.665-2.665-2.665h-99.67c-1.472,0-2.665,1.193-2.665,2.665v12.67
			c0,1.472,1.193,2.665,2.665,2.665h99.67c1.472,0,2.665-1.193,2.665-2.665V207.665z M227,217.865c0,1.179-0.956,2.135-2.135,2.135
			h-95.73c-1.179,0-2.135-0.956-2.135-2.135v-9.73c0-1.179,0.956-2.135,2.135-2.135h95.73c1.179,0,2.135,0.956,2.135,2.135V217.865z
			"/>
		<circle fill="#333333" cx="135.197" cy="213.203" r="6.262"/>
		<circle fill="#333333" cx="149.366" cy="213.203" r="6.263"/>
		<circle fill="#333333" cx="163.534" cy="213.203" r="6.263"/>
		<circle fill="#333333" cx="177.703" cy="213.203" r="6.262"/>
		<circle fill="#333333" cx="191.871" cy="213.203" r="6.262"/>
		<circle fill="#333333" cx="206.04" cy="213.203" r="6.262"/>
		<circle fill="#333333" cx="220.208" cy="213.203" r="6.262"/>
	</g>
	<path fill="#333333" d="M162,199.335c0,1.472-1.193,2.665-2.666,2.665h-18.668c-1.473,0-2.666-1.193-2.666-2.665v-22.67
		c0-1.472,1.193-2.665,2.666-2.665h18.668c1.473,0,2.666,1.193,2.666,2.665V199.335z"/>
	<path fill="#333333" d="M181,177.001c0,1.104-0.895,1.999-1.999,1.999h-11.002c-1.104,0-1.999-0.895-1.999-1.999v-0.002
		c0-1.104,0.895-1.999,1.999-1.999h11.002c1.104,0,1.999,0.895,1.999,1.999V177.001z"/>
	<path fill="#333333" d="M218,177.001c0,1.104-0.895,1.999-1.998,1.999h-24.004c-1.104,0-1.998-0.895-1.998-1.999v-0.002
		c0-1.104,0.895-1.999,1.998-1.999h24.004c1.104,0,1.998,0.895,1.998,1.999V177.001z"/>
	<rect x="128" y="20" fill="#333333" width="298" height="3"/>
	<g>
		<rect x="408" y="21.5" fill="#333333" width="0" height="62.983"/>
		<rect x="406" y="22" fill="#333333" width="5" height="63"/>
	</g>
	<polyline fill="none" stroke="#333333" stroke-width="3" stroke-miterlimit="10" points="401.142,129.951 393.934,114.602 
		398.33,93.977 408.351,91.179 404.726,106.768 408.351,118.759 	"/>
	<polyline fill="none" stroke="#333333" stroke-width="3" stroke-miterlimit="10" points="408.351,91.179 423.112,94.776 
		426.205,116.361 419.914,129.951 	"/>
	<circle fill="#333333" stroke="#333333" stroke-width="5" stroke-miterlimit="10" cx="408.617" cy="87.448" r="4.492"/>
</g>
<g>
	<rect x="1135" y="-514" fill="#D8D8D8" width="85" height="293"/>
	<polygon fill="#7F7F7F" points="1199.068,-547.953 1220.518,-510.729 1177.558,-510.766 1134.597,-510.802 1156.109,-547.989 
		1177.619,-585.174 	"/>
	<text transform="matrix(1 0 0 1 1147.9814 -479.4316)" fill="#7FCCD6" font-family="'MyriadPro-CondIt'" font-size="28.2756">FASTER</text>
	<polygon points="1147.982,-220.791 1135.086,-251 1110.281,-251 1085.479,-138 1131.115,-138 	"/>
	<polygon points="1206.518,-220.791 1219.416,-251 1244.219,-251 1269.021,-138 1223.385,-138 	"/>
	<rect x="1174" y="-251" width="9" height="113"/>
</g>
<g>
	<polygon fill="#DD4400" points="2068,-111 1634,-111 1634,-242 1634,-343 2068,-343 	"/>
	<g>
		<polygon fill="#FFC817" points="1706,-343 1739,-343 1632,-174 1632,-227 		"/>
		<polygon fill="#FFC817" points="1799,-345 1833,-343 1686,-111 1652,-111 		"/>
		<polygon fill="#FFC817" points="1890,-344 1924,-342 1777,-110 1743,-110 		"/>
		<polygon fill="#FFC817" points="1980,-344 2014,-342 1867,-110 1833,-110 		"/>
		<polygon fill="#FFC817" points="2068,-343 2068,-301 1944.67,-110 1918,-110 		"/>
		<polygon fill="#FFC817" points="1998.003,-111 2068,-212.668 2068,-186 2016.336,-111 		"/>
	</g>
</g>
<g>
	<polygon fill="#DD4400" points="2508,-111 2074,-111 2074,-242 2074,-343 2508,-343 	"/>
	<g>
		<polygon fill="#FFC817" points="2146,-343 2179,-343 2072,-174 2072,-227 		"/>
		<polygon fill="#FFC817" points="2239,-345 2273,-343 2126,-111 2092,-111 		"/>
		<polygon fill="#FFC817" points="2330,-344 2364,-342 2217,-110 2183,-110 		"/>
		<polygon fill="#FFC817" points="2420,-344 2454,-342 2307,-110 2273,-110 		"/>
		<polygon fill="#FFC817" points="2508,-343 2508,-301 2384.67,-110 2358,-110 		"/>
		<polygon fill="#FFC817" points="2438.003,-111 2508,-212.668 2508,-186 2456.336,-111 		"/>
	</g>
</g>
<g>
	<polygon fill="#DD4400" points="1631,-109.587 1344,-226.685 1344,-358.594 1344,-460.295 1631,-343.197 	"/>
	<g>
		<polygon fill="#FFC817" points="1391.881,-440.869 1413.679,-431.965 1343,-290.661 1343,-344.029 		"/>
		<polygon fill="#FFC817" points="1453.312,-417.79 1475.771,-406.604 1378.67,-212.654 1356.211,-221.827 		"/>
		<polygon fill="#FFC817" points="1513.422,-392.23 1535.881,-381.043 1438.779,-187.095 1416.321,-196.269 		"/>
		<polygon fill="#FFC817" points="1572.871,-367.948 1595.33,-356.76 1498.229,-162.812 1475.771,-171.986 		"/>
		<polygon fill="#FFC817" points="1631,-343.197 1631,-300.906 1549.534,-141.856 1531.918,-149.052 		"/>
		<polygon fill="#FFC817" points="1584.764,-128.473 1631,-211.961 1631,-185.107 1596.873,-123.526 		"/>
	</g>
</g>
<polyline fill="#313244" points="559,237 580,237 580,223.935 592,211.361 592,189 607.045,189 607.464,91 646.848,91 646.623,129 
	662.369,129 663,148.187 663,169.029 693,168.889 693,146.816 692.987,128.187 714,126.929 714,148.073 714,164 714,196.272 
	732,196.081 732,169.029 763,168.889 763,146.816 782.086,127.558 799,146.816 799,192.081 865,192.331 865,154.57 889,154.779 
	889,139 933.122,139 988.446,140 1029,140 1029,172.802 1060.904,171.321 1063.84,138 1101,138 1101,173 1118,173 1118,198 
	1166,198 1166,234 "/>
</svg>
