<?xml version="1.0" encoding="utf-8"?>
<!-- Generator: Adobe Illustrator 15.0.0, SVG Export Plug-In . SVG Version: 6.00 Build 0)  -->
<!DOCTYPE svg PUBLIC "-//W3C//DTD SVG 1.1//EN" "http://www.w3.org/Graphics/SVG/1.1/DTD/svg11.dtd">
<svg version="1.1" id="Layer_1" xmlns="http://www.w3.org/2000/svg" xmlns:xlink="http://www.w3.org/1999/xlink" x="0px" y="0px"
	 width="1820px" height="273px" viewBox="0 0 1820 273" enable-background="new 0 0 1820 273" xml:space="preserve">
<rect x="0.5" y="14.5" fill="#414242" stroke="#000000" stroke-miterlimit="10" width="1820" height="213"/>
<rect y="227" fill="#D1D1D1" width="1820" height="46"/>
<rect fill="#D1D1D1" width="1820" height="17"/>
<g>
	<g opacity="0.37">
		<path fill="#3B3E3F" d="M778.883,156.46c10.469-9.295,56.727-14.97,84.532-9.409c14.458,2.224,76.589,8.604,88.823,14.165
			c32.784,26.388-105.203,1.299-85.363,9.536c29.66,12.314-38.064,0-60.336,6.035c-9.896,2.681,61.17,3.336,56.723,20.02
			c-5.562,17.796-41.152,2.225-52.274,1.112c-14.458-1.112-30.029,5.561-45.601,5.561c-23.356,1.112-26.693,10.011-45.6,21.132
			c-27.806,15.571-66.733,13.347-94.539,2.225c-17.795-6.673-28.917-20.02-46.713-24.468c-32.253-6.674-66.731,8.897-100.098,7.785
			c-10.01,0-18.907,0-27.806-5.562c11.123-4.448,26.694-2.224,37.815-3.336c14.459-1.112,23.356-5.562,35.591-11.123
			c17.795-6.673,49.201,5.381,51.161-4.448c-4.448-4.449-27.171-5.989-15.57-13.347c31.406-23.293,122.685,5.993,169.325-1.586
			C744.088,168.293,759.229,173.912,778.883,156.46z"/>
		<g>
			<path fill="#1F2121" d="M779.524,156.904c6.353-5.354,16.122-6.918,24.024-8.393c11.82-2.207,23.949-3.016,35.96-2.937
				c17.364,0.114,34.981,3.676,52.205,5.845c18.141,2.285,36.739,4.104,54.487,8.653c4.024,1.032,8.384,2.818,9.938,7.083
				c1.055,2.895-2.689,3.987-4.752,4.511c-10.472,2.66-22.45,1.309-33.082,0.653c-12.453-0.768-24.866-2.056-37.291-3.167
				c-2.129-0.19-15.749-2.861-16.997,0.15c-0.686,1.655,4.724,3.151,5.3,3.416c0.34,0.156,4.324,2.355,3.86,2.577
				c-1.739,0.833-4.545,0.477-6.401,0.474c-16.053-0.021-32.034-2.038-48.107-1.29c-3.163,0.147-11.5-0.274-13.861,2.442
				c-1.383,1.592,4.371,2.149,4.857,2.223c13.178,1.981,26.542,2.904,39.391,6.677c4.447,1.305,11.483,3.326,13.212,8.248
				c1.097,3.122-1.66,6.536-3.994,8.209c-3.939,2.824-9.844,2.464-14.391,2.051c-9.103-0.825-17.891-3.752-26.714-5.962
				c-10.188-2.552-20.397-0.427-30.51,1.603c-7.685,1.542-15.14,2.451-22.945,2.898c-5.277,0.303-10.725,1.186-15.667,3.113
				c-9.19,3.585-16.617,10.333-24.799,15.66c-23.815,15.504-55.137,16.039-81.979,9.504c-13.145-3.2-24.809-8.87-36.078-16.262
				c-10.466-6.864-20.527-12.725-33.144-14.312c-18.901-2.377-38.099,2.039-56.624,5.298c-10.467,1.841-20.985,3.364-31.624,3.615
				c-11.1,0.261-22.588,0.358-32.423-5.453c-0.105,0.378-0.21,0.755-0.315,1.133c13.404-4.968,28.533-1.911,42.481-3.768
				c5.753-0.766,11.312-2.435,16.727-4.479c6.137-2.318,11.941-5.945,18.366-7.363c11.065-2.442,22.869,0.217,34.007,0.81
				c4.398,0.233,12.067,0.709,13.538-4.752c0.054-0.201-0.104-0.371-0.235-0.487c-4.963-4.389-14.005-3.14-18.28-8.242
				c-3.531-4.215,17.927-10.695,20.358-11.192c20.443-4.174,42.438-1.263,62.942,0.96c21.597,2.342,43.224,5.634,64.977,6.054
				c9.321,0.18,18.235-0.984,27.474-1.768c9.898-0.839,19.512-0.135,29.055-3.492C768.848,165.201,774.448,161.29,779.524,156.904
				c0.992-0.857-0.547-1.524-1.283-0.889c-10.526,9.094-21.757,12.753-35.458,13.152c-9.192,0.268-18.211,1.772-27.39,2.09
				c-21.88,0.757-43.89-2.611-65.569-5.1c-20.659-2.372-41.735-4.965-62.545-3.157c-7.636,0.664-15.306,2.156-22.308,5.353
				c-2.821,1.288-12.258,5.583-8.747,9.774c2.153,2.57,6.828,3.44,9.827,4.408c1.965,0.634,3.921,1.281,5.822,2.094
				c3.25,1.39,1.816,3.172-1.077,3.953c-5.204,1.404-11.482,0.122-16.747-0.367c-6.061-0.563-12.122-1.059-18.213-0.865
				c-13.931,0.441-25.648,9.371-39.174,12.13c-15.32,3.124-31.578-0.978-46.459,4.538c-0.413,0.152-0.831,0.828-0.315,1.133
				c10.781,6.37,23.362,6,35.505,5.714c14.407-0.339,28.66-3.381,42.804-5.87c15.389-2.708,31.017-4.849,46.602-2.543
				c13.909,2.057,25.075,11.445,36.729,18.53c20.823,12.659,47.179,16.927,71.208,15.026c12.055-0.953,23.953-4.029,34.798-9.395
				c9.743-4.819,17.594-12.617,27.186-17.646c11.758-6.163,26.009-4.53,38.749-6.962c7.437-1.42,14.8-3.103,22.386-3.474
				c4.807-0.234,9.156,0.844,13.749,2.06c8.465,2.241,16.948,4.701,25.724,5.319c6.187,0.436,13.276-0.375,17.247-5.689
				c12.967-17.354-45.669-21.404-53.606-22.702c-0.686-0.111-1.371-0.236-2.039-0.425c-0.681-0.192-0.866,0.548-0.212,0.357
				c3.497-1.016,7.238-1.271,10.854-1.5c8.772-0.553,17.607-0.139,26.377,0.274c7.322,0.345,14.643,0.855,21.974,0.96
				c1.764,0.025,8.243,0.746,9.2-1.646c1.027-2.567-6.34-4.876-7.69-5.444c-1.508-0.634-0.968-0.554-1.936-0.232
				c0.91-0.302,2.104-0.157,3.042-0.135c10.059,0.242,20.138,1.625,30.152,2.521c12.554,1.125,25.165,2.171,37.779,2.116
				c5.588-0.024,17.258,0.83,21.15-4.487c1.469-2.007,0.15-4.341-1.208-5.989c-3.18-3.856-7.377-4.762-12.08-5.853
				c-17.775-4.121-36.144-6.046-54.223-8.316c-18.159-2.279-36.386-5.724-54.72-5.565c-11.621,0.101-23.276,1.265-34.681,3.497
				c-7.462,1.461-16.47,3.309-22.465,8.361C777.238,156.861,778.782,157.53,779.524,156.904z"/>
		</g>
	</g>
	<ellipse fill="#1F2121" stroke="#000000" stroke-miterlimit="10" cx="664.074" cy="188.548" rx="66.612" ry="12.314"/>
</g>
</svg>
