<?xml version="1.0" encoding="utf-8"?>
<!-- Generator: Adobe Illustrator 15.0.0, SVG Export Plug-In . SVG Version: 6.00 Build 0)  -->
<!DOCTYPE svg PUBLIC "-//W3C//DTD SVG 1.1//EN" "http://www.w3.org/Graphics/SVG/1.1/DTD/svg11.dtd">
<svg version="1.1" id="Layer_1" xmlns="http://www.w3.org/2000/svg" xmlns:xlink="http://www.w3.org/1999/xlink" x="0px" y="0px"
	 width="4104px" height="569px" viewBox="0 0 4104 569" enable-background="new 0 0 4104 569" xml:space="preserve">
<g>
	<path fill="#999999" d="M2190,376.688c0,6.8-5.513,12.312-12.312,12.312h-646.375c-6.8,0-12.312-5.513-12.312-12.312V64.312
		c0-6.8,5.513-12.312,12.312-12.312h646.375c6.8,0,12.312,5.513,12.312,12.312V376.688z"/>
	<path fill="#CCCC33" d="M2200,126.076V385h208V148.238c0,0,2.504-21.547-11.04-22.778S2200,126.076,2200,126.076z"/>
	<circle cx="1626.12" cy="389.564" r="82.98"/>
	<circle cx="2011.502" cy="399.415" r="82.98"/>
	<circle cx="2304.542" cy="389.564" r="82.98"/>
</g>
<g>
	<path fill="#993333" d="M283,356.69c0,5.415-5.09,9.31-10.506,9.31h-34.82c-5.416,0-9.674-3.895-9.674-9.31v-0.4
		c0-5.416-1.157-9.29,4.258-9.29h40.235c5.417,0,10.506,3.874,10.506,9.29V356.69z"/>
	<path fill="#993333" d="M235,329.623c0,1.312-1.064,2.377-2.377,2.377h-0.246c-1.313,0-2.377-1.064-2.377-2.377v-35.246
		c0-1.312,1.064-2.377,2.377-2.377h0.246c1.313,0,2.377,1.064,2.377,2.377V329.623z"/>
	<circle cx="382.891" cy="414.524" r="35.754"/>
	<circle cx="95.526" cy="414.524" r="35.754"/>
	<path d="M49,343v-99.774c0,0,0.366-45.226,46.793-45.226C142.219,198,314,198,314,198v27.349c0,0-119.999-2.488-171.142-1.066
		c-9.605,0.268-9.525,10.798-9.525,10.798L133.677,343H49z"/>
	<path d="M314,198.4c0,0,56.351,43.6,59.552,144.6c-44.025,0-59.552,0-59.552,0V198.4z"/>
	<path fill="#FFCC33" d="M133,349v46.312c0,0,1.769,20.628,29.824,20.012c27.749-0.608,132.819-0.608,132.819-0.608
		s18.356,0,18.356-18.603c0-27.215,0-47.113,0-47.113h59.552c0,0,4.803,71-59.234,71C250.281,420,49,420,49,420v-71H133z"/>
	<path fill="#999933" d="M54.168,425h82.484c0,0,4.303-20.556-19.364-20.231c-14.375,0.197-47.339-0.214-47.339-0.214
		S54.168,405,54.168,425z"/>
	<path fill="#FFCC33" d="M341.222,414.716c0,0,0-58.093,63.282-41.549C435.695,381.322,341.222,414.716,341.222,414.716
		L341.222,414.716z"/>
	<rect x="228" y="222" width="4" height="192"/>
	<rect x="49" y="343" fill="#33CC33" width="84" height="6"/>
	<rect x="314" y="343" fill="#33CC33" width="59" height="6"/>
	<path fill="#33FFFF" d="M314,225.349V316h49.146C363.146,316,347,233.354,314,225.349z"/>
	<rect x="231" y="364" width="34" height="50"/>
	<rect x="133" y="349" fill="#999999" width="95" height="7"/>
</g>
<g>
	<path fill="#660000" d="M570,154c69.336-6.922,248.127-10.102,293-5s98.133,78.098,124,79.598s123.138,7.5,128.5,32.998
		s-0.644,82.11-19.39,89.053s-549.443,3.086-549.443,3.086s-39.274-0.644-40.774-17.143s-9.226-62.592,6.774-65.258
		c9.191-35.119,37.147-99.145,37.147-99.145S550.621,155.935,570,154z"/>
	<circle cx="574" cy="340.666" r="50"/>
	<circle cx="1027" cy="334.666" r="50"/>
	<path fill="#99FFFF" d="M563.834,177.615L535,241h424l-86.5-65c0,0-18.758-15-35.129-14c-14.812,0.904-225.028,7.232-264.87,9.141
		C565,171.5,563.834,177.615,563.834,177.615z"/>
	<path fill="#666666" d="M789,254.5c0,1.381-1.119,2.5-2.5,2.5h-21c-1.381,0-2.5-1.119-2.5-2.5l0,0c0-1.381,1.119-2.5,2.5-2.5h21
		C787.881,252,789,253.119,789,254.5L789,254.5z"/>
	<path fill="#666666" d="M631,256.5c0,1.381-1.119,2.5-2.5,2.5h-21c-1.381,0-2.5-1.119-2.5-2.5l0,0c0-1.381,1.119-2.5,2.5-2.5h21
		C629.881,254,631,255.119,631,256.5L631,256.5z"/>
	<line fill="none" stroke="#666666" stroke-miterlimit="10" x1="747.5" y1="166" x2="747.5" y2="344"/>
</g>
<g>
	<g>
		<path fill="#999999" d="M2954,343.847c0,5.056-4.097,9.153-9.15,9.153H2464.15c-5.054,0-9.15-4.098-9.15-9.153V112.153
			c0-5.055,4.097-9.153,9.15-9.153h480.699c5.054,0,9.15,4.098,9.15,9.153V343.847z"/>
		<path fill="#999999" d="M2943.215,102.418c0,0,27.903-0.198,39.282,1.763c7.966,1.371,68.503,140.129,68.503,154.751
			c0,10.479,0,53.846,0,77.584c0,15.704-11.161,16.483-11.161,16.483H2943"/>
	</g>
	<circle cx="2971.064" cy="348.972" r="56.718"/>
	<circle cx="2530.791" cy="352.221" r="56.718"/>
	<polyline fill="#99FFFF" points="2493,122 2850,122 2850,227 2493,227 2493,128 	"/>
	<path fill="#CCCCCC" d="M2553,227v55.361c0,0,42.899,12.998,42.899,56.863c43.324-0.542,254.101,0,254.101,0V227H2553z"/>
	<line fill="#CCCCCC" x1="2659" y1="227" x2="2659" y2="339"/>
	<line fill="#666666" x1="2652" y1="122" x2="2652" y2="339"/>
	<line fill="#666666" x1="2870" y1="122" x2="2870" y2="339"/>
	<path fill="#666666" d="M2834,273.344c0,2.02-1.637,3.656-3.656,3.656h-1.688c-2.02,0-3.656-1.637-3.656-3.656v-30.688
		c0-2.02,1.637-3.656,3.656-3.656h1.688c2.02,0,3.656,1.637,3.656,3.656V273.344z"/>
	<path fill="#666666" d="M2888,273.344c0,2.02-1.637,3.656-3.655,3.656h-1.689c-2.019,0-3.655-1.637-3.655-3.656v-30.688
		c0-2.02,1.637-3.656,3.655-3.656h1.689c2.019,0,3.655,1.637,3.655,3.656V273.344z"/>
	<polygon fill="#99FFFF" points="2870,122 2870,223.875 3013.95,222.489 2965.379,122 	"/>
</g>
<g>
	<circle cx="1400" cy="470" r="45.5"/>
	<circle cx="1622" cy="470" r="45.5"/>
	<path d="M1584.5,384"/>
	<circle fill="#999999" cx="1594" cy="359" r="8"/>
	<path fill="#999999" d="M1627.9,468.816c1.043,3.898-1.271,7.902-5.169,8.945l-0.377,0.101c-3.897,1.042-7.902-1.272-8.944-5.17
		l-34.311-63.509c-1.043-3.898,1.271-7.902,5.17-8.945l0.377-0.101c3.896-1.042,7.901,1.272,8.943,5.17L1627.9,468.816z"/>
	<path fill="#999999" d="M1543,460c0,5.523-4.477,10-10,10h-67c-5.523,0-10-4.477-10-10v-35c0-5.523,4.477-10,10-10h67
		c5.523,0,10,4.477,10,10V460z"/>
	<path d="M1523.5,378.286c0,0-30.5,20.214-52.5,21.214s-82-4.5-82-4.5s-26.518-3-23.259,4.5s19.25,15.941,28.259,16.5
		c27,1.674,64,9,62,35s39.063-35.389,76.063-28.389S1523.5,378.286,1523.5,378.286z"/>
	<ellipse fill="#CCCC33" cx="1549" cy="399.5" rx="51" ry="24.5"/>
	<path d="M1545.723,274.449c0,0-17.381-6.255-25,2.487c-7.619,8.743-10.711,24.08-10.711,24.08l18.877,13.257
		c0,0,10.736,7.288,14.272,9.778c5.657,3.984,17.376,6.162,17.151-6.679c-0.105-5.997,1.842-22.162,1.842-22.162
		S1562.708,282.572,1545.723,274.449z"/>
	<path d="M1512.271,304c0,0-43.271,29.726-51.271,47.226s-13.5,26.388-9.5,35.888s4.5,8.443,8.5,12.443s67,24.972,61,33.972
		s-46,41.485-32,48.485s21.5,10.493,21.5,10.493s17.5-0.003,6-7.003s-13.5-10.502-13.5-10.502s39.5-36.501,46-47.501
		s2-12.001-6-17.501s-52-20.5-50-26s7-30,20-45s9.5-25,15.232-29.149S1528,304,1528,304H1512.271z"/>
	<path d="M1498,331.5l39.924,31.5c0,0,5.727,2.957,12.326,1.556c8.5-1.806,37.603-10.213,41.349-12.169
		c8.401-4.387,11.978,9.113,11.09,6.613c-0.887-2.5,0.336-5.973-1.438-8s-6.989-3.444-12.756-2.973
		c-5.768,0.473-41.322,0.528-46.064-3.693c-0.258-0.23-20.919-22.334-28.46-23.334S1498,331.5,1498,331.5z"/>
</g>
<g>
	<circle cx="1476" cy="1304" r="45.5"/>
	<circle cx="1698" cy="1304" r="45.5"/>
	<path d="M1660.5,1218"/>
	<circle fill="#999999" cx="1670" cy="1193" r="8"/>
	<path fill="#999999" d="M1703.9,1302.816c1.043,3.898-1.271,7.902-5.169,8.945l-0.377,0.101c-3.897,1.042-7.902-1.272-8.944-5.17
		l-34.311-63.509c-1.043-3.898,1.271-7.902,5.17-8.945l0.377-0.101c3.896-1.042,7.901,1.272,8.943,5.17L1703.9,1302.816z"/>
	<path fill="#999999" d="M1619,1294c0,5.523-4.477,10-10,10h-67c-5.523,0-10-4.477-10-10v-35c0-5.523,4.477-10,10-10h67
		c5.523,0,10,4.477,10,10V1294z"/>
	<path d="M1599.5,1212.286c0,0-30.5,20.214-52.5,21.214s-82-4.5-82-4.5s-26.518-3-23.259,4.5s19.25,15.941,28.259,16.5
		c27,1.674,64,9,62,35s39.063-35.389,76.063-28.389S1599.5,1212.286,1599.5,1212.286z"/>
	<ellipse fill="#CCCC33" cx="1625" cy="1233.5" rx="51" ry="24.5"/>
	<path d="M1621.723,1108.449c0,0-17.381-6.255-25,2.487c-7.619,8.743-10.711,24.08-10.711,24.08l18.877,13.257
		c0,0,10.736,7.288,14.272,9.778c5.657,3.984,17.376,6.162,17.151-6.679c-0.105-5.997,1.842-22.162,1.842-22.162
		S1638.708,1116.572,1621.723,1108.449z"/>
	<path d="M1588.271,1138c0,0-43.271,29.726-51.271,47.226s-13.5,26.388-9.5,35.888s4.5,8.443,8.5,12.443s67,24.972,61,33.972
		s-46,41.485-32,48.485s21.5,10.493,21.5,10.493s17.5-0.003,6-7.003s-13.5-10.502-13.5-10.502s39.5-36.501,46-47.501
		s2-12.001-6-17.501s-52-20.5-50-26s7-30,20-45s9.5-25,15.232-29.149S1604,1138,1604,1138H1588.271z"/>
	<path d="M1574,1165.5l39.924,31.5c0,0,5.727,2.957,12.326,1.556c8.5-1.806,37.603-10.213,41.349-12.169
		c8.401-4.387,11.978,9.113,11.09,6.613c-0.887-2.5,0.336-5.973-1.438-8s-6.989-3.444-12.756-2.973
		c-5.768,0.473-41.322,0.528-46.064-3.693c-0.258-0.23-20.919-22.334-28.46-23.334S1574,1165.5,1574,1165.5z"/>
</g>
<g>
	<circle cx="692" cy="1225" r="45.5"/>
	<circle cx="914" cy="1225" r="45.5"/>
	<path d="M876.5,1139"/>
	<circle fill="#999999" cx="886" cy="1114" r="8"/>
	<path fill="#999999" d="M919.9,1223.816c1.043,3.898-1.271,7.902-5.169,8.945l-0.377,0.101c-3.897,1.042-7.902-1.272-8.944-5.17
		l-34.311-63.509c-1.043-3.898,1.271-7.902,5.17-8.945l0.377-0.101c3.896-1.042,7.901,1.272,8.943,5.17L919.9,1223.816z"/>
	<path fill="#999999" d="M835,1215c0,5.523-4.477,10-10,10h-67c-5.523,0-10-4.477-10-10v-35c0-5.523,4.477-10,10-10h67
		c5.523,0,10,4.477,10,10V1215z"/>
	<path d="M815.5,1133.286c0,0-30.5,20.214-52.5,21.214s-82-4.5-82-4.5s-26.518-3-23.259,4.5s19.25,15.941,28.259,16.5
		c27,1.674,64,9,62,35s39.063-35.389,76.063-28.389S815.5,1133.286,815.5,1133.286z"/>
	<ellipse fill="#CCCC33" cx="841" cy="1154.5" rx="51" ry="24.5"/>
	<path d="M837.723,1029.449c0,0-17.381-6.255-25,2.487c-7.619,8.743-10.711,24.08-10.711,24.08l18.877,13.257
		c0,0,10.736,7.288,14.272,9.778c5.657,3.984,17.376,6.162,17.151-6.679c-0.105-5.997,1.842-22.162,1.842-22.162
		S854.708,1037.572,837.723,1029.449z"/>
	<path d="M804.271,1059c0,0-43.271,29.726-51.271,47.226s-13.5,26.388-9.5,35.888s4.5,8.443,8.5,12.443s67,24.972,61,33.972
		s-46,41.485-32,48.485s21.5,10.493,21.5,10.493s17.5-0.003,6-7.003s-13.5-10.502-13.5-10.502s39.5-36.501,46-47.501
		s2-12.001-6-17.501s-52-20.5-50-26s7-30,20-45s9.5-25,15.232-29.149S820,1059,820,1059H804.271z"/>
	<path d="M790,1086.5l39.924,31.5c0,0,5.727,2.957,12.326,1.556c8.5-1.806,37.603-10.213,41.349-12.169
		c8.401-4.387,11.978,9.113,11.09,6.613c-0.887-2.5,0.336-5.973-1.438-8s-6.989-3.444-12.756-2.973
		c-5.768,0.473-41.322,0.528-46.064-3.693c-0.258-0.23-20.919-22.334-28.46-23.334S790,1086.5,790,1086.5z"/>
</g>
<g>
	<g>
		<g>
			<path fill="#CCCCCC" d="M4056.838,49h-955.132C3082.632,49,3067,64.716,3067,83.792V328h1025V83.792
				C4092,64.716,4075.912,49,4056.838,49z"/>
		</g>
		<path fill="#CCFFFF" d="M3255,210.458c0,19.077-15.464,34.542-34.539,34.542h-78.922c-19.075,0-34.539-15.465-34.539-34.542
			v-88.916c0-19.077,15.464-34.542,34.539-34.542h78.922c19.075,0,34.539,15.465,34.539,34.542V210.458z"/>
		<path fill="#CCFFFF" d="M3427,210.458c0,19.077-15.464,34.542-34.539,34.542h-78.922c-19.075,0-34.539-15.465-34.539-34.542
			v-88.916c0-19.077,15.464-34.542,34.539-34.542h78.922c19.075,0,34.539,15.465,34.539,34.542V210.458z"/>
		<path fill="#CCFFFF" d="M3595,210.458c0,19.077-15.463,34.542-34.538,34.542h-78.924c-19.075,0-34.538-15.465-34.538-34.542
			v-88.916c0-19.077,15.463-34.542,34.538-34.542h78.924c19.075,0,34.538,15.465,34.538,34.542V210.458z"/>
		<path fill="#CCFFFF" d="M3758,210.458c0,19.077-15.464,34.542-34.54,34.542h-78.92c-19.076,0-34.54-15.465-34.54-34.542v-88.916
			c0-19.077,15.464-34.542,34.54-34.542h78.92c19.076,0,34.54,15.465,34.54,34.542V210.458z"/>
		<path fill="#CCFFFF" d="M3923,210.458c0,19.077-15.464,34.542-34.539,34.542h-78.922c-19.075,0-34.539-15.465-34.539-34.542
			v-88.916c0-19.077,15.464-34.542,34.539-34.542h78.922c19.075,0,34.539,15.465,34.539,34.542V210.458z"/>
		<rect x="4011" y="101" fill="#CCFFFF" width="81" height="167"/>
		<path d="M4048.881,454.783c0,41.509-33.652,75.163-75.162,75.163c-41.516,0-75.167-33.654-75.167-75.163
			c0-41.516,33.651-75.166,75.167-75.166C4015.229,379.617,4048.881,413.268,4048.881,454.783z"/>
		<path d="M3298.229,454.783c0,41.509-33.653,75.163-75.166,75.163s-75.164-33.654-75.164-75.163
			c0-41.516,33.651-75.166,75.164-75.166S3298.229,413.268,3298.229,454.783z"/>
		<path fill="#6699CC" d="M3067,328v108.446c0,19.075,15.632,34.554,34.706,34.554h40.031c-1.054-6-1.614-10.664-1.614-16.21
			c0-45.112,36.568-81.683,81.675-81.683c45.111,0,81.681,36.572,81.681,81.683c0,5.549-0.559,10.21-1.614,16.21h591.788
			c-1.054-6-1.613-10.664-1.613-16.21c0-45.112,36.566-81.683,81.68-81.683c45.107,0,81.676,36.572,81.676,81.683
			c0,5.549-0.559,10.21-1.613,16.21h3.057c19.074,0,35.162-15.479,35.162-34.554V328H3067z"/>
		<rect x="3313" y="283" fill="#CCFFFF" width="566" height="172"/>
		<text transform="matrix(1 0 0 1 3329.1475 327.6943)"><tspan x="0" y="0" fill="#DBD175" font-family="'MyriadPro-Bold'" font-size="30.3187">Luxurious Spacious 3BHK Apartments</tspan><tspan x="0" y="36.383" fill="#DBD175" font-family="'MyriadPro-Bold'" font-size="30.3187">Right next to your workplace..</tspan></text>
	</g>
</g>
<g>
	<path fill="#993333" d="M3273,1208.69c0,5.415-5.09,9.31-10.506,9.31h-34.82c-5.416,0-9.674-3.895-9.674-9.31v-0.4
		c0-5.416-1.156-9.29,4.258-9.29h40.236c5.416,0,10.506,3.874,10.506,9.29V1208.69z"/>
	<path fill="#993333" d="M3225,1181.623c0,1.312-1.064,2.377-2.377,2.377h-0.246c-1.312,0-2.377-1.064-2.377-2.377v-35.246
		c0-1.312,1.064-2.377,2.377-2.377h0.246c1.312,0,2.377,1.064,2.377,2.377V1181.623z"/>
	<circle cx="3372.891" cy="1266.524" r="35.754"/>
	<circle cx="3085.526" cy="1266.524" r="35.754"/>
	<path d="M3039,1195v-99.774c0,0,0.365-45.226,46.793-45.226c46.426,0,218.207,0,218.207,0v27.349c0,0-119.998-2.488-171.142-1.066
		c-9.604,0.268-9.525,10.798-9.525,10.798l0.344,107.92H3039z"/>
	<path d="M3304,1050.4c0,0,56.351,43.6,59.552,144.6c-44.025,0-59.552,0-59.552,0V1050.4z"/>
	<path fill="#FFCC33" d="M3123,1201v46.312c0,0,1.769,20.628,29.824,20.012c27.749-0.608,132.819-0.608,132.819-0.608
		s18.356,0,18.356-18.603c0-27.215,0-47.113,0-47.113h59.552c0,0,4.804,71-59.234,71c-64.036,0-265.317,0-265.317,0v-71H3123z"/>
	<path fill="#999933" d="M3044.168,1277h82.484c0,0,4.303-20.556-19.365-20.231c-14.374,0.197-47.339-0.214-47.339-0.214
		S3044.168,1257,3044.168,1277z"/>
	<path fill="#FFCC33" d="M3331.222,1266.716c0,0,0-58.093,63.282-41.549C3425.695,1233.322,3331.222,1266.716,3331.222,1266.716
		L3331.222,1266.716z"/>
	<rect x="3218" y="1074" width="4" height="192"/>
	<rect x="3039" y="1195" fill="#33CC33" width="84" height="6"/>
	<rect x="3304" y="1195" fill="#33CC33" width="59" height="6"/>
	<path fill="#33FFFF" d="M3304,1077.349V1168h49.146C3353.146,1168,3337,1085.354,3304,1077.349z"/>
	<rect x="3221" y="1216" width="34" height="50"/>
	<rect x="3123" y="1201" fill="#999999" width="95" height="7"/>
</g>
<g>
	<circle cx="1086" cy="435" r="45.5"/>
	<circle cx="1308" cy="435" r="45.5"/>
	<path d="M1270.5,349"/>
	<circle fill="#999999" cx="1280" cy="324" r="8"/>
	<path fill="#999999" d="M1313.9,433.816c1.043,3.898-1.271,7.902-5.169,8.945l-0.377,0.101c-3.897,1.042-7.902-1.272-8.944-5.17
		l-34.311-63.509c-1.043-3.898,1.271-7.902,5.17-8.945l0.377-0.101c3.896-1.042,7.901,1.272,8.943,5.17L1313.9,433.816z"/>
	<path fill="#999999" d="M1229,425c0,5.523-4.477,10-10,10h-67c-5.523,0-10-4.477-10-10v-35c0-5.523,4.477-10,10-10h67
		c5.523,0,10,4.477,10,10V425z"/>
	<path d="M1209.5,343.286c0,0-30.5,20.214-52.5,21.214s-82-4.5-82-4.5s-26.518-3-23.259,4.5s19.25,15.941,28.259,16.5
		c27,1.674,64,9,62,35s39.063-35.389,76.063-28.389S1209.5,343.286,1209.5,343.286z"/>
	<ellipse fill="#66CC33" cx="1235" cy="364.5" rx="51" ry="24.5"/>
	<path d="M1231.723,239.449c0,0-17.381-6.255-25,2.487c-7.619,8.743-10.711,24.08-10.711,24.08l18.877,13.257
		c0,0,10.736,7.288,14.272,9.778c5.657,3.984,17.376,6.162,17.151-6.679c-0.105-5.997,1.842-22.162,1.842-22.162
		S1248.708,247.572,1231.723,239.449z"/>
	<path d="M1198.271,269c0,0-43.271,29.726-51.271,47.226s-13.5,26.388-9.5,35.888s4.5,8.443,8.5,12.443s67,24.972,61,33.972
		s-46,41.485-32,48.485s21.5,10.493,21.5,10.493s17.5-0.003,6-7.003s-13.5-10.502-13.5-10.502s39.5-36.501,46-47.501
		s2-12.001-6-17.501s-52-20.5-50-26s7-30,20-45s9.5-25,15.232-29.149S1214,269,1214,269H1198.271z"/>
	<path d="M1184,296.5l39.924,31.5c0,0,5.727,2.957,12.326,1.556c8.5-1.806,37.603-10.213,41.349-12.169
		c8.401-4.387,11.978,9.113,11.09,6.613c-0.887-2.5,0.336-5.973-1.438-8s-6.989-3.444-12.756-2.973
		c-5.768,0.473-41.322,0.528-46.064-3.693c-0.258-0.23-20.919-22.334-28.46-23.334S1184,296.5,1184,296.5z"/>
</g>
<g>
	<g>
		<path fill="#999999" d="M606,1311.399c0,4.75-3.85,8.601-8.599,8.601H145.599c-4.749,0-8.599-3.851-8.599-8.601v-217.799
			c0-4.75,3.85-8.601,8.599-8.601h451.803c4.749,0,8.599,3.851,8.599,8.601V1311.399z"/>
		<path fill="#999999" d="M596.249,1084.707c0,0,26.455-0.098,37.148,1.744c7.484,1.287,64.604,131.764,64.604,145.503
			c0,9.846,0,50.598,0,72.904c0,14.756-10.906,15.142-10.906,15.142H596"/>
	</g>
	<circle cx="622.468" cy="1316.561" r="53.297"/>
	<circle cx="208.751" cy="1319.614" r="53.296"/>
	<polyline fill="#99FFFF" points="173,1104 509,1104 509,1202 173,1202 173,1109 	"/>
	<path fill="#CCCCCC" d="M229,1202v51.97c0,0,40.77,12.214,40.77,53.433c40.71-0.51,239.23,0,239.23,0V1202H229z"/>
	<line fill="#CCCCCC" x1="329" y1="1202" x2="329" y2="1308"/>
	<line fill="#666666" x1="322" y1="1104" x2="322" y2="1308"/>
	<line fill="#666666" x1="528" y1="1104" x2="528" y2="1308"/>
	<path fill="#666666" d="M493,1244.564c0,1.897-1.538,3.436-3.435,3.436h-1.131c-1.897,0-3.435-1.538-3.435-3.436v-28.129
		c0-1.897,1.538-3.436,3.435-3.436h1.131c1.897,0,3.435,1.538,3.435,3.436V1244.564z"/>
	<path fill="#666666" d="M544,1244.564c0,1.897-1.538,3.436-3.436,3.436h-1.129c-1.897,0-3.436-1.538-3.436-3.436v-28.129
		c0-1.897,1.538-3.436,3.436-3.436h1.129c1.897,0,3.436,1.538,3.436,3.436V1244.564z"/>
	<polygon fill="#99FFFF" points="528,1104 528,1199.011 663.015,1198.068 617.125,1104 	"/>
</g>
<g>
	<circle cx="2722" cy="1268" r="45.5"/>
	<circle cx="2944" cy="1268" r="45.5"/>
	<path d="M2906.5,1182"/>
	<circle fill="#999999" cx="2916" cy="1157" r="8"/>
	<path fill="#999999" d="M2949.9,1266.816c1.043,3.898-1.271,7.902-5.169,8.945l-0.377,0.101c-3.897,1.042-7.902-1.272-8.944-5.17
		l-34.311-63.509c-1.043-3.898,1.271-7.902,5.17-8.945l0.377-0.101c3.896-1.042,7.901,1.272,8.943,5.17L2949.9,1266.816z"/>
	<path fill="#999999" d="M2865,1258c0,5.523-4.477,10-10,10h-67c-5.523,0-10-4.477-10-10v-35c0-5.523,4.477-10,10-10h67
		c5.523,0,10,4.477,10,10V1258z"/>
	<path d="M2845.5,1176.286c0,0-30.5,20.214-52.5,21.214s-82-4.5-82-4.5s-26.518-3-23.259,4.5s19.25,15.941,28.259,16.5
		c27,1.674,64,9,62,35s39.063-35.389,76.063-28.389S2845.5,1176.286,2845.5,1176.286z"/>
	<ellipse fill="#CC3333" cx="2871" cy="1197.5" rx="51" ry="24.5"/>
	<path d="M2867.723,1072.449c0,0-17.381-6.255-25,2.487c-7.619,8.743-10.711,24.08-10.711,24.08l18.877,13.257
		c0,0,10.736,7.288,14.272,9.778c5.657,3.984,17.376,6.162,17.151-6.679c-0.105-5.997,1.842-22.162,1.842-22.162
		S2884.708,1080.572,2867.723,1072.449z"/>
	<path d="M2834.271,1102c0,0-43.271,29.726-51.271,47.226s-13.5,26.388-9.5,35.888s4.5,8.443,8.5,12.443s67,24.972,61,33.972
		s-46,41.485-32,48.485s21.5,10.493,21.5,10.493s17.5-0.003,6-7.003s-13.5-10.502-13.5-10.502s39.5-36.501,46-47.501
		s2-12.001-6-17.501s-52-20.5-50-26s7-30,20-45s9.5-25,15.232-29.149S2850,1102,2850,1102H2834.271z"/>
	<path d="M2820,1129.5l39.924,31.5c0,0,5.727,2.957,12.326,1.556c8.5-1.806,37.603-10.213,41.349-12.169
		c8.401-4.387,11.978,9.113,11.09,6.613c-0.887-2.5,0.336-5.973-1.438-8s-6.989-3.444-12.756-2.973
		c-5.768,0.473-41.322,0.528-46.064-3.693c-0.258-0.23-20.919-22.334-28.46-23.334S2820,1129.5,2820,1129.5z"/>
</g>
<g>
	<path fill="#333366" d="M3451,1131c69.336-6.922,248.127-10.102,293-5s98.133,78.098,124,79.598s123.138,7.5,128.5,32.998
		s-0.644,82.11-19.39,89.053s-549.443,3.086-549.443,3.086s-39.274-0.644-40.774-17.143s-9.226-62.592,6.774-65.258
		c9.191-35.119,37.147-99.145,37.147-99.145S3431.621,1132.935,3451,1131z"/>
	<circle cx="3455" cy="1317.666" r="50"/>
	<circle cx="3908" cy="1311.666" r="50"/>
	<path fill="#99FFFF" d="M3444.834,1154.615L3416,1218h424l-86.5-65c0,0-18.758-15-35.129-14
		c-14.812,0.904-225.028,7.232-264.87,9.141C3446,1148.5,3444.834,1154.615,3444.834,1154.615z"/>
	<path fill="#666666" d="M3670,1231.5c0,1.381-1.119,2.5-2.5,2.5h-21c-1.381,0-2.5-1.119-2.5-2.5l0,0c0-1.381,1.119-2.5,2.5-2.5h21
		C3668.881,1229,3670,1230.119,3670,1231.5L3670,1231.5z"/>
	<path fill="#666666" d="M3512,1233.5c0,1.381-1.119,2.5-2.5,2.5h-21c-1.381,0-2.5-1.119-2.5-2.5l0,0c0-1.381,1.119-2.5,2.5-2.5h21
		C3510.881,1231,3512,1232.119,3512,1233.5L3512,1233.5z"/>
	<line fill="none" stroke="#666666" stroke-miterlimit="10" x1="3628.5" y1="1143" x2="3628.5" y2="1321"/>
</g>
<g>
	<path fill="#660000" d="M2363,1142c69.336-6.922,248.127-10.102,293-5s98.133,78.098,124,79.598s123.138,7.5,128.5,32.998
		s-0.644,82.11-19.39,89.053s-549.443,3.086-549.443,3.086s-39.274-0.644-40.774-17.143s-9.226-62.592,6.774-65.258
		c9.191-35.119,37.147-99.145,37.147-99.145S2343.621,1143.935,2363,1142z"/>
	<circle cx="2367" cy="1328.666" r="50"/>
	<circle cx="2820" cy="1322.666" r="50"/>
	<path fill="#99FFFF" d="M2356.834,1165.615L2328,1229h424l-86.5-65c0,0-18.758-15-35.129-14
		c-14.812,0.904-225.028,7.232-264.87,9.141C2358,1159.5,2356.834,1165.615,2356.834,1165.615z"/>
	<path fill="#666666" d="M2582,1242.5c0,1.381-1.119,2.5-2.5,2.5h-21c-1.381,0-2.5-1.119-2.5-2.5l0,0c0-1.381,1.119-2.5,2.5-2.5h21
		C2580.881,1240,2582,1241.119,2582,1242.5L2582,1242.5z"/>
	<path fill="#666666" d="M2424,1244.5c0,1.381-1.119,2.5-2.5,2.5h-21c-1.381,0-2.5-1.119-2.5-2.5l0,0c0-1.381,1.119-2.5,2.5-2.5h21
		C2422.881,1242,2424,1243.119,2424,1244.5L2424,1244.5z"/>
	<line fill="none" stroke="#666666" stroke-miterlimit="10" x1="2540.5" y1="1154" x2="2540.5" y2="1332"/>
</g>
<g>
	<g>
		<path fill="#999999" d="M2163,1293.501c0,4.142-3.356,7.499-7.497,7.499h-394.006c-4.141,0-7.497-3.357-7.497-7.499v-190.002
			c0-4.142,3.356-7.499,7.497-7.499h394.006c4.141,0,7.497,3.357,7.497,7.499V1293.501z"/>
		<path fill="#999999" d="M2154.084,1095.754c0,0,22.665-0.135,31.988,1.472c6.526,1.123,55.928,114.834,55.928,126.813
			c0,8.585,0,44.116,0,63.564c0,12.866-8.844,13.396-8.844,13.396H2154"/>
	</g>
	<circle cx="2176.81" cy="1297.808" r="46.469"/>
	<circle cx="1816.095" cy="1300.47" r="46.469"/>
	<polyline fill="#99FFFF" points="1785,1112 2078,1112 2078,1198 1785,1198 1785,1117 	"/>
	<path fill="#CCCCCC" d="M1834,1198v45.234c0,0,35.482,10.649,35.482,46.588c35.495-0.444,208.518,0,208.518,0V1198H1834z"/>
	<line fill="#CCCCCC" x1="1921" y1="1198" x2="1921" y2="1290"/>
	<line fill="#666666" x1="1915" y1="1112" x2="1915" y2="1290"/>
	<line fill="#666666" x1="2094" y1="1112" x2="2094" y2="1290"/>
	<path fill="#666666" d="M2064,1236.005c0,1.654-1.341,2.995-2.995,2.995h-1.01c-1.654,0-2.995-1.341-2.995-2.995v-25.01
		c0-1.654,1.341-2.995,2.995-2.995h1.01c1.654,0,2.995,1.341,2.995,2.995V1236.005z"/>
	<path fill="#666666" d="M2108,1236.005c0,1.654-1.341,2.995-2.995,2.995h-1.01c-1.654,0-2.995-1.341-2.995-2.995v-25.01
		c0-1.654,1.341-2.995,2.995-2.995h1.01c1.654,0,2.995,1.341,2.995,2.995V1236.005z"/>
	<polygon fill="#99FFFF" points="2094,1112 2094,1195.316 2211.941,1194.256 2172.151,1112 	"/>
</g>
<g>
	<path fill="#993333" d="M1277,1239.69c0,5.415-5.09,9.31-10.506,9.31h-34.82c-5.416,0-9.674-3.895-9.674-9.31v-0.4
		c0-5.416-1.157-9.29,4.258-9.29h40.235c5.417,0,10.506,3.874,10.506,9.29V1239.69z"/>
	<path fill="#993333" d="M1229,1212.623c0,1.312-1.064,2.377-2.377,2.377h-0.246c-1.313,0-2.377-1.064-2.377-2.377v-35.246
		c0-1.312,1.064-2.377,2.377-2.377h0.246c1.313,0,2.377,1.064,2.377,2.377V1212.623z"/>
	<circle cx="1376.891" cy="1297.524" r="35.754"/>
	<circle cx="1089.526" cy="1297.524" r="35.754"/>
	<path d="M1043,1226v-99.774c0,0,0.366-45.226,46.793-45.226c46.426,0,218.207,0,218.207,0v27.349c0,0-119.999-2.488-171.142-1.066
		c-9.605,0.268-9.525,10.798-9.525,10.798l0.344,107.92H1043z"/>
	<path d="M1308,1081.4c0,0,56.351,43.6,59.552,144.6c-44.025,0-59.552,0-59.552,0V1081.4z"/>
	<path fill="#FFCC33" d="M1127,1232v46.312c0,0,1.769,20.628,29.824,20.012c27.749-0.608,132.819-0.608,132.819-0.608
		s18.356,0,18.356-18.603c0-27.215,0-47.113,0-47.113h59.552c0,0,4.803,71-59.234,71c-64.036,0-265.317,0-265.317,0v-71H1127z"/>
	<path fill="#999933" d="M1048.168,1308h82.484c0,0,4.303-20.556-19.364-20.231c-14.375,0.197-47.339-0.214-47.339-0.214
		S1048.168,1288,1048.168,1308z"/>
	<path fill="#FFCC33" d="M1335.222,1297.716c0,0,0-58.093,63.282-41.549C1429.695,1264.322,1335.222,1297.716,1335.222,1297.716
		L1335.222,1297.716z"/>
	<rect x="1222" y="1105" width="4" height="192"/>
	<rect x="1043" y="1226" fill="#33CC33" width="84" height="6"/>
	<rect x="1308" y="1226" fill="#33CC33" width="59" height="6"/>
	<path fill="#33FFFF" d="M1308,1108.349V1199h49.146C1357.146,1199,1341,1116.354,1308,1108.349z"/>
	<rect x="1225" y="1247" width="34" height="50"/>
	<rect x="1127" y="1232" fill="#999999" width="95" height="7"/>
</g>
</svg>
