<?xml version="1.0" encoding="utf-8"?>
<!-- Generator: Adobe Illustrator 15.0.0, SVG Export Plug-In . SVG Version: 6.00 Build 0)  -->
<!DOCTYPE svg PUBLIC "-//W3C//DTD SVG 1.1//EN" "http://www.w3.org/Graphics/SVG/1.1/DTD/svg11.dtd">
<svg version="1.1" id="Layer_1" xmlns="http://www.w3.org/2000/svg" xmlns:xlink="http://www.w3.org/1999/xlink" x="0px" y="0px"
	 width="3919.911px" height="472px" viewBox="0 0 3919.911 472" enable-background="new 0 0 3919.911 472" xml:space="preserve">
<g>
	<path fill="#999999" d="M2099-645.312c0,6.8-5.513,12.312-12.312,12.312h-646.375c-6.8,0-12.312-5.513-12.312-12.312v-312.375
		c0-6.8,5.513-12.312,12.312-12.312h646.375c6.8,0,12.312,5.513,12.312,12.312V-645.312z"/>
	<path fill="#CCCC33" d="M2109-895.924V-637h208v-236.762c0,0,2.504-21.547-11.04-22.778S2109-895.924,2109-895.924z"/>
	<circle cx="1535.12" cy="-632.436" r="82.98"/>
	<circle cx="1920.502" cy="-622.585" r="82.98"/>
	<circle cx="2213.542" cy="-632.436" r="82.98"/>
</g>
<g>
	<path fill="#993333" d="M192-640.31c0,5.415-5.09,9.31-10.506,9.31h-34.82c-5.416,0-9.674-3.895-9.674-9.31v-0.4
		c0-5.416-1.157-9.29,4.258-9.29h40.235c5.417,0,10.506,3.874,10.506,9.29V-640.31z"/>
	<path fill="#993333" d="M144-667.377c0,1.312-1.064,2.377-2.377,2.377h-0.246c-1.313,0-2.377-1.064-2.377-2.377v-35.246
		c0-1.312,1.064-2.377,2.377-2.377h0.246c1.313,0,2.377,1.064,2.377,2.377V-667.377z"/>
	<circle cx="291.891" cy="-582.476" r="35.754"/>
	<circle cx="4.526" cy="-582.476" r="35.754"/>
	<path d="M-42-654v-99.774c0,0,0.366-45.226,46.793-45.226C51.219-799,223-799,223-799v27.349c0,0-119.999-2.488-171.142-1.066
		c-9.605,0.268-9.525,10.798-9.525,10.798L42.677-654H-42z"/>
	<path d="M223-798.6c0,0,56.351,43.6,59.552,144.6c-44.025,0-59.552,0-59.552,0V-798.6z"/>
	<path fill="#FFCC33" d="M42-648v46.312c0,0,1.769,20.628,29.824,20.012c27.749-0.608,132.819-0.608,132.819-0.608
		s18.356,0,18.356-18.603c0-27.215,0-47.113,0-47.113h59.552c0,0,4.803,71-59.234,71C159.281-577-42-577-42-577v-71H42z"/>
	<path fill="#999933" d="M-36.832-572h82.484c0,0,4.303-20.556-19.364-20.231c-14.375,0.197-47.339-0.214-47.339-0.214
		S-36.832-592-36.832-572z"/>
	<path fill="#FFCC33" d="M250.222-582.284c0,0,0-58.093,63.282-41.549C344.695-615.678,250.222-582.284,250.222-582.284
		L250.222-582.284z"/>
	<rect x="137" y="-775" width="4" height="192"/>
	<rect x="-42" y="-654" fill="#33CC33" width="84" height="6"/>
	<rect x="223" y="-654" fill="#33CC33" width="59" height="6"/>
	<path fill="#33FFFF" d="M223-771.651V-681h49.146C272.146-681,256-763.646,223-771.651z"/>
	<rect x="140" y="-633" width="34" height="50"/>
	<rect x="42" y="-648" fill="#999999" width="95" height="7"/>
</g>
<g>
	<path fill="#660000" d="M479-843c69.336-6.922,248.127-10.102,293-5s98.133,78.098,124,79.598s123.138,7.5,128.5,32.998
		s-0.644,82.11-19.39,89.053s-549.443,3.086-549.443,3.086s-39.274-0.644-40.774-17.143s-9.226-62.592,6.774-65.258
		c9.191-35.119,37.147-99.145,37.147-99.145S459.621-841.065,479-843z"/>
	<circle cx="483" cy="-656.334" r="50"/>
	<circle cx="936" cy="-662.334" r="50"/>
	<path fill="#99FFFF" d="M472.834-819.385L444-756h424l-86.5-65c0,0-18.758-15-35.129-14c-14.812,0.904-225.028,7.232-264.87,9.141
		C474-825.5,472.834-819.385,472.834-819.385z"/>
	<path fill="#666666" d="M698-742.5c0,1.381-1.119,2.5-2.5,2.5h-21c-1.381,0-2.5-1.119-2.5-2.5l0,0c0-1.381,1.119-2.5,2.5-2.5h21
		C696.881-745,698-743.881,698-742.5L698-742.5z"/>
	<path fill="#666666" d="M540-740.5c0,1.381-1.119,2.5-2.5,2.5h-21c-1.381,0-2.5-1.119-2.5-2.5l0,0c0-1.381,1.119-2.5,2.5-2.5h21
		C538.881-743,540-741.881,540-740.5L540-740.5z"/>
	<line fill="none" stroke="#666666" stroke-miterlimit="10" x1="656.5" y1="-831" x2="656.5" y2="-653"/>
</g>
<g>
	<g>
		<path fill="#999999" d="M2877-611.153c0,5.056-4.097,9.153-9.15,9.153H2387.15c-5.054,0-9.15-4.098-9.15-9.153v-231.693
			c0-5.055,4.097-9.153,9.15-9.153h480.699c5.054,0,9.15,4.098,9.15,9.153V-611.153z"/>
		<path fill="#999999" d="M2866.215-852.582c0,0,27.903-0.198,39.282,1.763c7.966,1.371,68.503,140.129,68.503,154.751
			c0,10.479,0,53.846,0,77.584c0,15.704-11.161,16.483-11.161,16.483H2866"/>
	</g>
	<circle cx="2894.064" cy="-606.028" r="56.718"/>
	<circle cx="2453.791" cy="-602.779" r="56.718"/>
	<polyline fill="#99FFFF" points="2416,-833 2773,-833 2773,-728 2416,-728 2416,-827 	"/>
	<path fill="#CCCCCC" d="M2476-728v55.361c0,0,42.899,12.998,42.899,56.863c43.324-0.542,254.101,0,254.101,0V-728H2476z"/>
	<line fill="#CCCCCC" x1="2582" y1="-728" x2="2582" y2="-616"/>
	<line fill="#666666" x1="2575" y1="-833" x2="2575" y2="-616"/>
	<line fill="#666666" x1="2793" y1="-833" x2="2793" y2="-616"/>
	<path fill="#666666" d="M2757-681.656c0,2.02-1.637,3.656-3.656,3.656h-1.688c-2.02,0-3.656-1.637-3.656-3.656v-30.688
		c0-2.02,1.637-3.656,3.656-3.656h1.688c2.02,0,3.656,1.637,3.656,3.656V-681.656z"/>
	<path fill="#666666" d="M2811-681.656c0,2.02-1.637,3.656-3.655,3.656h-1.689c-2.019,0-3.655-1.637-3.655-3.656v-30.688
		c0-2.02,1.637-3.656,3.655-3.656h1.689c2.019,0,3.655,1.637,3.655,3.656V-681.656z"/>
	<polygon fill="#99FFFF" points="2793,-833 2793,-731.125 2936.95,-732.511 2888.379,-833 	"/>
</g>
<g>
	<circle cx="1309" cy="-527" r="45.5"/>
	<circle cx="1531" cy="-527" r="45.5"/>
	<path d="M1493.5-613"/>
	<circle fill="#999999" cx="1503" cy="-638" r="8"/>
	<path fill="#999999" d="M1536.9-528.184c1.043,3.898-1.271,7.902-5.169,8.945l-0.377,0.101c-3.897,1.042-7.902-1.272-8.944-5.17
		l-34.311-63.509c-1.043-3.898,1.271-7.902,5.17-8.945l0.377-0.101c3.896-1.042,7.901,1.272,8.943,5.17L1536.9-528.184z"/>
	<path fill="#999999" d="M1452-537c0,5.523-4.477,10-10,10h-67c-5.523,0-10-4.477-10-10v-35c0-5.523,4.477-10,10-10h67
		c5.523,0,10,4.477,10,10V-537z"/>
	<path d="M1432.5-618.714c0,0-30.5,20.214-52.5,21.214s-82-4.5-82-4.5s-26.518-3-23.259,4.5s19.25,15.941,28.259,16.5
		c27,1.674,64,9,62,35s39.063-35.389,76.063-28.389S1432.5-618.714,1432.5-618.714z"/>
	<ellipse fill="#CCCC33" cx="1458" cy="-597.5" rx="51" ry="24.5"/>
	<path d="M1454.723-722.551c0,0-17.381-6.255-25,2.487c-7.619,8.743-10.711,24.08-10.711,24.08l18.877,13.257
		c0,0,10.736,7.288,14.272,9.778c5.657,3.984,17.376,6.162,17.151-6.679c-0.105-5.997,1.842-22.162,1.842-22.162
		S1471.708-714.428,1454.723-722.551z"/>
	<path d="M1421.271-693c0,0-43.271,29.726-51.271,47.226s-13.5,26.388-9.5,35.888s4.5,8.443,8.5,12.443s67,24.972,61,33.972
		s-46,41.485-32,48.485s21.5,10.493,21.5,10.493s17.5-0.003,6-7.003s-13.5-10.502-13.5-10.502s39.5-36.501,46-47.501
		s2-12.001-6-17.501s-52-20.5-50-26s7-30,20-45s9.5-25,15.232-29.149S1437-693,1437-693H1421.271z"/>
	<path d="M1407-665.5l39.924,31.5c0,0,5.727,2.957,12.326,1.556c8.5-1.806,37.603-10.213,41.349-12.169
		c8.401-4.387,11.978,9.113,11.09,6.613c-0.887-2.5,0.336-5.973-1.438-8s-6.989-3.444-12.756-2.973
		c-5.768,0.473-41.322,0.528-46.064-3.693c-0.258-0.23-20.919-22.334-28.46-23.334S1407-665.5,1407-665.5z"/>
</g>
<g>
	<circle cx="1385" cy="307" r="45.5"/>
	<circle cx="1607" cy="307" r="45.5"/>
	<path d="M1569.5,221"/>
	<circle fill="#999999" cx="1579" cy="196" r="8"/>
	<path fill="#999999" d="M1612.9,305.816c1.043,3.898-1.271,7.902-5.169,8.945l-0.377,0.101c-3.897,1.042-7.902-1.272-8.944-5.17
		l-34.311-63.509c-1.043-3.898,1.271-7.902,5.17-8.945l0.377-0.101c3.896-1.042,7.901,1.272,8.943,5.17L1612.9,305.816z"/>
	<path fill="#999999" d="M1528,297c0,5.523-4.477,10-10,10h-67c-5.523,0-10-4.477-10-10v-35c0-5.523,4.477-10,10-10h67
		c5.523,0,10,4.477,10,10V297z"/>
	<path d="M1508.5,215.286c0,0-30.5,20.214-52.5,21.214s-82-4.5-82-4.5s-26.518-3-23.259,4.5s19.25,15.941,28.259,16.5
		c27,1.674,64,9,62,35s39.063-35.389,76.063-28.389S1508.5,215.286,1508.5,215.286z"/>
	<ellipse fill="#CCCC33" cx="1534" cy="236.5" rx="51" ry="24.5"/>
	<path d="M1530.723,111.449c0,0-17.381-6.255-25,2.487c-7.619,8.743-10.711,24.08-10.711,24.08l18.877,13.257
		c0,0,10.736,7.288,14.272,9.778c5.657,3.984,17.376,6.162,17.151-6.679c-0.105-5.997,1.842-22.162,1.842-22.162
		S1547.708,119.572,1530.723,111.449z"/>
	<path d="M1497.271,141c0,0-43.271,29.726-51.271,47.226s-13.5,26.388-9.5,35.888s4.5,8.443,8.5,12.443s67,24.972,61,33.972
		s-46,41.485-32,48.485s21.5,10.493,21.5,10.493s17.5-0.003,6-7.003s-13.5-10.502-13.5-10.502s39.5-36.501,46-47.501
		s2-12.001-6-17.501s-52-20.5-50-26s7-30,20-45s9.5-25,15.232-29.149S1513,141,1513,141H1497.271z"/>
	<path d="M1483,168.5l39.924,31.5c0,0,5.727,2.957,12.326,1.556c8.5-1.806,37.603-10.213,41.349-12.169
		c8.401-4.387,11.978,9.113,11.09,6.613c-0.887-2.5,0.336-5.973-1.438-8s-6.989-3.444-12.756-2.973
		c-5.768,0.473-41.322,0.528-46.064-3.693c-0.258-0.23-20.919-22.334-28.46-23.334S1483,168.5,1483,168.5z"/>
</g>
<g>
	<circle cx="601" cy="228" r="45.5"/>
	<circle cx="823" cy="228" r="45.5"/>
	<path d="M785.5,142"/>
	<circle fill="#999999" cx="795" cy="117" r="8"/>
	<path fill="#999999" d="M828.9,226.816c1.043,3.898-1.271,7.902-5.169,8.945l-0.377,0.101c-3.897,1.042-7.902-1.272-8.944-5.17
		L780.1,167.184c-1.043-3.898,1.271-7.902,5.17-8.945l0.377-0.101c3.896-1.042,7.901,1.272,8.943,5.17L828.9,226.816z"/>
	<path fill="#999999" d="M744,218c0,5.523-4.477,10-10,10h-67c-5.523,0-10-4.477-10-10v-35c0-5.523,4.477-10,10-10h67
		c5.523,0,10,4.477,10,10V218z"/>
	<path d="M724.5,136.286c0,0-30.5,20.214-52.5,21.214s-82-4.5-82-4.5s-26.518-3-23.259,4.5S585.991,173.441,595,174
		c27,1.674,64,9,62,35s39.063-35.389,76.063-28.389S724.5,136.286,724.5,136.286z"/>
	<ellipse fill="#CCCC33" cx="750" cy="157.5" rx="51" ry="24.5"/>
	<path d="M746.723,32.449c0,0-17.381-6.255-25,2.487c-7.619,8.743-10.711,24.08-10.711,24.08l18.877,13.257
		c0,0,10.736,7.288,14.272,9.778c5.657,3.984,17.376,6.162,17.151-6.679c-0.105-5.997,1.842-22.162,1.842-22.162
		S763.708,40.572,746.723,32.449z"/>
	<path d="M713.271,62c0,0-43.271,29.726-51.271,47.226s-13.5,26.388-9.5,35.888s4.5,8.443,8.5,12.443s67,24.972,61,33.972
		s-46,41.485-32,48.485s21.5,10.493,21.5,10.493s17.5-0.003,6-7.003S704,233.002,704,233.002s39.5-36.501,46-47.501
		s2-12.001-6-17.501s-52-20.5-50-26s7-30,20-45s9.5-25,15.232-29.149S729,62,729,62H713.271z"/>
	<path d="M699,89.5l39.924,31.5c0,0,5.727,2.957,12.326,1.556c8.5-1.806,37.603-10.213,41.349-12.169
		C801,106,804.576,119.5,803.688,117c-0.887-2.5,0.336-5.973-1.438-8s-6.989-3.444-12.756-2.973
		c-5.768,0.473-41.322,0.528-46.064-3.693C743.172,102.104,722.511,80,714.97,79S699,89.5,699,89.5z"/>
</g>
<g>
	<g>
		<g>
			<path fill="#CCCCCC" d="M3867.018-874h-809.422c-16.164,0-29.596,13.03-29.596,29.195V-638h869v-206.805
				C3897-860.97,3883.182-874,3867.018-874z"/>
		</g>
		<path fill="#CCFFFF" d="M3187-737.272c0,16.167-13.104,29.272-29.27,29.272h-66.461c-16.165,0-29.27-13.105-29.27-29.272v-75.455
			c0-16.167,13.104-29.272,29.27-29.272h66.461c16.165,0,29.27,13.105,29.27,29.272V-737.272z"/>
		<path fill="#CCFFFF" d="M3333-737.272c0,16.167-13.104,29.272-29.271,29.272h-66.459c-16.166,0-29.271-13.105-29.271-29.272
			v-75.455c0-16.167,13.104-29.272,29.271-29.272h66.459c16.166,0,29.271,13.105,29.271,29.272V-737.272z"/>
		<path fill="#CCFFFF" d="M3475-737.272c0,16.167-13.104,29.272-29.27,29.272h-66.461c-16.165,0-29.27-13.105-29.27-29.272v-75.455
			c0-16.167,13.104-29.272,29.27-29.272h66.461c16.165,0,29.27,13.105,29.27,29.272V-737.272z"/>
		<path fill="#CCFFFF" d="M3613-737.272c0,16.167-13.104,29.272-29.271,29.272h-66.459c-16.166,0-29.271-13.105-29.271-29.272
			v-75.455c0-16.167,13.104-29.272,29.271-29.272h66.459c16.166,0,29.271,13.105,29.271,29.272V-737.272z"/>
		<path fill="#CCFFFF" d="M3753-737.272c0,16.167-13.105,29.272-29.271,29.272h-66.459c-16.166,0-29.271-13.105-29.271-29.272
			v-75.455c0-16.167,13.104-29.272,29.271-29.272h66.459c16.165,0,29.271,13.105,29.271,29.272V-737.272z"/>
		<rect x="3828" y="-830" fill="#CCFFFF" width="69" height="141"/>
		<circle cx="3796.577" cy="-530.41" r="63.698"/>
		<circle cx="3160.44" cy="-530.41" r="63.698"/>
		<path fill="#6699CC" d="M3028-638v92.051c0,16.165,13.432,28.949,29.596,28.949h33.925c-0.894-5-1.368-8.87-1.368-13.57
			c0-38.23,30.989-69.139,69.215-69.139c38.229,0,69.22,30.869,69.22,69.098c0,4.702-0.474,8.611-1.368,13.611h501.508
			c-0.893-5-1.367-8.87-1.367-13.57c0-38.23,30.988-69.139,69.219-69.139c38.227,0,69.216,30.869,69.216,69.098
			c0,4.702-0.473,8.611-1.367,13.611h2.591c16.164,0,29.982-12.784,29.982-28.949V-638H3028z"/>
		<rect x="3237" y="-676" fill="#CCFFFF" width="479" height="146"/>
		<text transform="matrix(1 0 0 1 3250.3398 -638.1104)"><tspan x="0" y="0" fill="#DBD175" font-family="'MyriadPro-Bold'" font-size="25.6934">Luxurious Spacious 3BHK Apartments</tspan><tspan x="0" y="30.832" fill="#DBD175" font-family="'MyriadPro-Bold'" font-size="25.6934">Right next to your workplace..</tspan></text>
	</g>
	<g>
		<circle fill="#4686F7" cx="3911.489" cy="-864.771" r="5.803"/>
		<circle fill="none" stroke="#4686F7" stroke-width="3" stroke-miterlimit="10" cx="3911.489" cy="-864.771" r="8.422"/>
	</g>
</g>
<g>
	<path fill="#993333" d="M3182,211.69c0,5.415-5.09,9.31-10.506,9.31h-34.82c-5.416,0-9.674-3.895-9.674-9.31v-0.4
		c0-5.416-1.156-9.29,4.258-9.29h40.236c5.416,0,10.506,3.874,10.506,9.29V211.69z"/>
	<path fill="#993333" d="M3134,184.623c0,1.312-1.064,2.377-2.377,2.377h-0.246c-1.312,0-2.377-1.064-2.377-2.377v-35.246
		c0-1.312,1.064-2.377,2.377-2.377h0.246c1.312,0,2.377,1.064,2.377,2.377V184.623z"/>
	<circle cx="3281.891" cy="269.524" r="35.754"/>
	<circle cx="2994.526" cy="269.524" r="35.754"/>
	<path d="M2948,198V98.226c0,0,0.365-45.226,46.793-45.226C3041.219,53,3213,53,3213,53v27.349c0,0-119.998-2.488-171.142-1.066
		c-9.604,0.268-9.525,10.798-9.525,10.798l0.344,107.92H2948z"/>
	<path d="M3213,53.4c0,0,56.351,43.6,59.552,144.6c-44.025,0-59.552,0-59.552,0V53.4z"/>
	<path fill="#FFCC33" d="M3032,204v46.312c0,0,1.769,20.628,29.824,20.012c27.749-0.608,132.819-0.608,132.819-0.608
		s18.356,0,18.356-18.603c0-27.215,0-47.113,0-47.113h59.552c0,0,4.804,71-59.234,71c-64.036,0-265.317,0-265.317,0v-71H3032z"/>
	<path fill="#999933" d="M2953.168,280h82.484c0,0,4.303-20.556-19.365-20.231c-14.374,0.197-47.339-0.214-47.339-0.214
		S2953.168,260,2953.168,280z"/>
	<path fill="#FFCC33" d="M3240.222,269.716c0,0,0-58.093,63.282-41.549C3334.695,236.322,3240.222,269.716,3240.222,269.716
		L3240.222,269.716z"/>
	<rect x="3127" y="77" width="4" height="192"/>
	<rect x="2948" y="198" fill="#33CC33" width="84" height="6"/>
	<rect x="3213" y="198" fill="#33CC33" width="59" height="6"/>
	<path fill="#33FFFF" d="M3213,80.349V171h49.146C3262.146,171,3246,88.354,3213,80.349z"/>
	<rect x="3130" y="219" width="34" height="50"/>
	<rect x="3032" y="204" fill="#999999" width="95" height="7"/>
</g>
<g>
	<circle cx="995" cy="-562" r="45.5"/>
	<circle cx="1217" cy="-562" r="45.5"/>
	<path d="M1179.5-648"/>
	<circle fill="#999999" cx="1189" cy="-673" r="8"/>
	<path fill="#999999" d="M1222.9-563.184c1.043,3.898-1.271,7.902-5.169,8.945l-0.377,0.101c-3.897,1.042-7.902-1.272-8.944-5.17
		l-34.311-63.509c-1.043-3.898,1.271-7.902,5.17-8.945l0.377-0.101c3.896-1.042,7.901,1.272,8.943,5.17L1222.9-563.184z"/>
	<path fill="#999999" d="M1138-572c0,5.523-4.477,10-10,10h-67c-5.523,0-10-4.477-10-10v-35c0-5.523,4.477-10,10-10h67
		c5.523,0,10,4.477,10,10V-572z"/>
	<path d="M1118.5-653.714c0,0-30.5,20.214-52.5,21.214s-82-4.5-82-4.5s-26.518-3-23.259,4.5S979.991-616.559,989-616
		c27,1.674,64,9,62,35s39.063-35.389,76.063-28.389S1118.5-653.714,1118.5-653.714z"/>
	<ellipse fill="#66CC33" cx="1144" cy="-632.5" rx="51" ry="24.5"/>
	<path d="M1140.723-757.551c0,0-17.381-6.255-25,2.487c-7.619,8.743-10.711,24.08-10.711,24.08l18.877,13.257
		c0,0,10.736,7.288,14.272,9.778c5.657,3.984,17.376,6.162,17.151-6.679c-0.105-5.997,1.842-22.162,1.842-22.162
		S1157.708-749.428,1140.723-757.551z"/>
	<path d="M1107.271-728c0,0-43.271,29.726-51.271,47.226s-13.5,26.388-9.5,35.888s4.5,8.443,8.5,12.443s67,24.972,61,33.972
		s-46,41.485-32,48.485s21.5,10.493,21.5,10.493s17.5-0.003,6-7.003s-13.5-10.502-13.5-10.502s39.5-36.501,46-47.501
		s2-12.001-6-17.501s-52-20.5-50-26s7-30,20-45s9.5-25,15.232-29.149S1123-728,1123-728H1107.271z"/>
	<path d="M1093-700.5l39.924,31.5c0,0,5.727,2.957,12.326,1.556c8.5-1.806,37.603-10.213,41.349-12.169
		c8.401-4.387,11.978,9.113,11.09,6.613c-0.887-2.5,0.336-5.973-1.438-8s-6.989-3.444-12.756-2.973
		c-5.768,0.473-41.322,0.528-46.064-3.693c-0.258-0.23-20.919-22.334-28.46-23.334S1093-700.5,1093-700.5z"/>
</g>
<g>
	<g>
		<path fill="#999999" d="M515,314.399c0,4.75-3.85,8.601-8.599,8.601H54.599C49.85,323,46,319.149,46,314.399V96.601
			C46,91.851,49.85,88,54.599,88h451.803c4.749,0,8.599,3.851,8.599,8.601V314.399z"/>
		<path fill="#999999" d="M505.249,87.707c0,0,26.455-0.098,37.148,1.744C549.881,90.738,607,221.215,607,234.954
			c0,9.846,0,50.598,0,72.904C607,322.614,596.094,323,596.094,323H505"/>
	</g>
	<circle cx="531.468" cy="319.561" r="53.297"/>
	<circle cx="117.751" cy="322.614" r="53.296"/>
	<polyline fill="#99FFFF" points="82,107 418,107 418,205 82,205 82,112 	"/>
	<path fill="#CCCCCC" d="M138,205v51.97c0,0,40.77,12.214,40.77,53.433c40.71-0.51,239.23,0,239.23,0V205H138z"/>
	<line fill="#CCCCCC" x1="238" y1="205" x2="238" y2="311"/>
	<line fill="#666666" x1="231" y1="107" x2="231" y2="311"/>
	<line fill="#666666" x1="437" y1="107" x2="437" y2="311"/>
	<path fill="#666666" d="M402,247.564c0,1.897-1.538,3.436-3.435,3.436h-1.131c-1.897,0-3.435-1.538-3.435-3.436v-28.129
		c0-1.897,1.538-3.436,3.435-3.436h1.131c1.897,0,3.435,1.538,3.435,3.436V247.564z"/>
	<path fill="#666666" d="M453,247.564c0,1.897-1.538,3.436-3.436,3.436h-1.129c-1.897,0-3.436-1.538-3.436-3.436v-28.129
		c0-1.897,1.538-3.436,3.436-3.436h1.129c1.897,0,3.436,1.538,3.436,3.436V247.564z"/>
	<polygon fill="#99FFFF" points="437,107 437,202.011 572.015,201.068 526.125,107 	"/>
</g>
<g>
	<circle cx="2631" cy="271" r="45.5"/>
	<circle cx="2853" cy="271" r="45.5"/>
	<path d="M2815.5,185"/>
	<circle fill="#999999" cx="2825" cy="160" r="8"/>
	<path fill="#999999" d="M2858.9,269.816c1.043,3.898-1.271,7.902-5.169,8.945l-0.377,0.101c-3.897,1.042-7.902-1.272-8.944-5.17
		l-34.311-63.509c-1.043-3.898,1.271-7.902,5.17-8.945l0.377-0.101c3.896-1.042,7.901,1.272,8.943,5.17L2858.9,269.816z"/>
	<path fill="#999999" d="M2774,261c0,5.523-4.477,10-10,10h-67c-5.523,0-10-4.477-10-10v-35c0-5.523,4.477-10,10-10h67
		c5.523,0,10,4.477,10,10V261z"/>
	<path d="M2754.5,179.286c0,0-30.5,20.214-52.5,21.214s-82-4.5-82-4.5s-26.518-3-23.259,4.5s19.25,15.941,28.259,16.5
		c27,1.674,64,9,62,35s39.063-35.389,76.063-28.389S2754.5,179.286,2754.5,179.286z"/>
	<ellipse fill="#CC3333" cx="2780" cy="200.5" rx="51" ry="24.5"/>
	<path d="M2776.723,75.449c0,0-17.381-6.255-25,2.487c-7.619,8.743-10.711,24.08-10.711,24.08l18.877,13.257
		c0,0,10.736,7.288,14.272,9.778c5.657,3.984,17.376,6.162,17.151-6.679c-0.105-5.997,1.842-22.162,1.842-22.162
		S2793.708,83.572,2776.723,75.449z"/>
	<path d="M2743.271,105c0,0-43.271,29.726-51.271,47.226s-13.5,26.388-9.5,35.888s4.5,8.443,8.5,12.443s67,24.972,61,33.972
		s-46,41.485-32,48.485s21.5,10.493,21.5,10.493s17.5-0.003,6-7.003s-13.5-10.502-13.5-10.502s39.5-36.501,46-47.501
		s2-12.001-6-17.501s-52-20.5-50-26s7-30,20-45s9.5-25,15.232-29.149S2759,105,2759,105H2743.271z"/>
	<path d="M2729,132.5l39.924,31.5c0,0,5.727,2.957,12.326,1.556c8.5-1.806,37.603-10.213,41.349-12.169
		c8.401-4.387,11.978,9.113,11.09,6.613c-0.887-2.5,0.336-5.973-1.438-8s-6.989-3.444-12.756-2.973
		c-5.768,0.473-41.322,0.528-46.064-3.693c-0.258-0.23-20.919-22.334-28.46-23.334S2729,132.5,2729,132.5z"/>
</g>
<g>
	<path fill="#333366" d="M3360,134c69.336-6.922,248.127-10.102,293-5s98.133,78.098,124,79.598s123.138,7.5,128.5,32.998
		s-0.644,82.11-19.39,89.053s-549.443,3.086-549.443,3.086s-39.274-0.644-40.774-17.143s-9.226-62.592,6.774-65.258
		c9.191-35.119,37.147-99.145,37.147-99.145S3340.621,135.935,3360,134z"/>
	<circle cx="3364" cy="320.666" r="50"/>
	<circle cx="3817" cy="314.666" r="50"/>
	<path fill="#99FFFF" d="M3353.834,157.615L3325,221h424l-86.5-65c0,0-18.758-15-35.129-14
		c-14.812,0.904-225.028,7.232-264.87,9.141C3355,151.5,3353.834,157.615,3353.834,157.615z"/>
	<path fill="#666666" d="M3579,234.5c0,1.381-1.119,2.5-2.5,2.5h-21c-1.381,0-2.5-1.119-2.5-2.5l0,0c0-1.381,1.119-2.5,2.5-2.5h21
		C3577.881,232,3579,233.119,3579,234.5L3579,234.5z"/>
	<path fill="#666666" d="M3421,236.5c0,1.381-1.119,2.5-2.5,2.5h-21c-1.381,0-2.5-1.119-2.5-2.5l0,0c0-1.381,1.119-2.5,2.5-2.5h21
		C3419.881,234,3421,235.119,3421,236.5L3421,236.5z"/>
	<line fill="none" stroke="#666666" stroke-miterlimit="10" x1="3537.5" y1="146" x2="3537.5" y2="324"/>
</g>
<g>
	<path fill="#660000" d="M2272,165c69.336-6.922,248.127-10.102,293-5s98.133,78.098,124,79.598s123.138,7.5,128.5,32.998
		s-0.644,82.11-19.39,89.053s-549.443,3.086-549.443,3.086s-39.274-0.644-40.774-17.143s-9.226-62.592,6.774-65.258
		c9.191-35.119,37.147-99.145,37.147-99.145S2252.621,166.935,2272,165z"/>
	<circle cx="2276" cy="351.666" r="50"/>
	<circle cx="2729" cy="345.666" r="50"/>
	<path fill="#99FFFF" d="M2265.834,188.615L2237,252h424l-86.5-65c0,0-18.758-15-35.129-14
		c-14.812,0.904-225.028,7.232-264.87,9.141C2267,182.5,2265.834,188.615,2265.834,188.615z"/>
	<path fill="#666666" d="M2491,265.5c0,1.381-1.119,2.5-2.5,2.5h-21c-1.381,0-2.5-1.119-2.5-2.5l0,0c0-1.381,1.119-2.5,2.5-2.5h21
		C2489.881,263,2491,264.119,2491,265.5L2491,265.5z"/>
	<path fill="#666666" d="M2333,267.5c0,1.381-1.119,2.5-2.5,2.5h-21c-1.381,0-2.5-1.119-2.5-2.5l0,0c0-1.381,1.119-2.5,2.5-2.5h21
		C2331.881,265,2333,266.119,2333,267.5L2333,267.5z"/>
	<line fill="none" stroke="#666666" stroke-miterlimit="10" x1="2449.5" y1="177" x2="2449.5" y2="355"/>
</g>
<g>
	<g>
		<path fill="#999999" d="M2072,316.501c0,4.142-3.356,7.499-7.497,7.499h-394.006c-4.141,0-7.497-3.357-7.497-7.499V126.499
			c0-4.142,3.356-7.499,7.497-7.499h394.006c4.141,0,7.497,3.357,7.497,7.499V316.501z"/>
		<path fill="#999999" d="M2063.084,118.754c0,0,22.665-0.135,31.988,1.472c6.526,1.123,55.928,114.834,55.928,126.813
			c0,8.585,0,44.116,0,63.564c0,12.866-8.844,13.396-8.844,13.396H2063"/>
	</g>
	<circle cx="2085.81" cy="320.808" r="46.469"/>
	<circle cx="1725.095" cy="323.47" r="46.469"/>
	<polyline fill="#99FFFF" points="1694,135 1987,135 1987,221 1694,221 1694,140 	"/>
	<path fill="#CCCCCC" d="M1743,221v45.234c0,0,35.482,10.649,35.482,46.588c35.495-0.444,208.518,0,208.518,0V221H1743z"/>
	<line fill="#CCCCCC" x1="1830" y1="221" x2="1830" y2="313"/>
	<line fill="#666666" x1="1824" y1="135" x2="1824" y2="313"/>
	<line fill="#666666" x1="2003" y1="135" x2="2003" y2="313"/>
	<path fill="#666666" d="M1973,259.005c0,1.654-1.341,2.995-2.995,2.995h-1.01c-1.654,0-2.995-1.341-2.995-2.995v-25.01
		c0-1.654,1.341-2.995,2.995-2.995h1.01c1.654,0,2.995,1.341,2.995,2.995V259.005z"/>
	<path fill="#666666" d="M2017,259.005c0,1.654-1.341,2.995-2.995,2.995h-1.01c-1.654,0-2.995-1.341-2.995-2.995v-25.01
		c0-1.654,1.341-2.995,2.995-2.995h1.01c1.654,0,2.995,1.341,2.995,2.995V259.005z"/>
	<polygon fill="#99FFFF" points="2003,135 2003,218.316 2120.941,217.256 2081.151,135 	"/>
</g>
<g>
	<path fill="#993333" d="M1186,242.69c0,5.415-5.09,9.31-10.506,9.31h-34.82c-5.416,0-9.674-3.895-9.674-9.31v-0.4
		c0-5.416-1.157-9.29,4.258-9.29h40.235c5.417,0,10.506,3.874,10.506,9.29V242.69z"/>
	<path fill="#993333" d="M1138,215.623c0,1.312-1.064,2.377-2.377,2.377h-0.246c-1.313,0-2.377-1.064-2.377-2.377v-35.246
		c0-1.312,1.064-2.377,2.377-2.377h0.246c1.313,0,2.377,1.064,2.377,2.377V215.623z"/>
	<circle cx="1285.891" cy="300.524" r="35.754"/>
	<circle cx="998.526" cy="300.524" r="35.754"/>
	<path d="M952,229v-99.774c0,0,0.366-45.226,46.793-45.226C1045.219,84,1217,84,1217,84v27.349c0,0-119.999-2.488-171.142-1.066
		c-9.605,0.268-9.525,10.798-9.525,10.798l0.344,107.92H952z"/>
	<path d="M1217,84.4c0,0,56.351,43.6,59.552,144.6c-44.025,0-59.552,0-59.552,0V84.4z"/>
	<path fill="#FFCC33" d="M1036,235v46.312c0,0,1.769,20.628,29.824,20.012c27.749-0.608,132.819-0.608,132.819-0.608
		s18.356,0,18.356-18.603c0-27.215,0-47.113,0-47.113h59.552c0,0,4.803,71-59.234,71C1153.281,306,952,306,952,306v-71H1036z"/>
	<path fill="#999933" d="M957.168,311h82.484c0,0,4.303-20.556-19.364-20.231c-14.375,0.197-47.339-0.214-47.339-0.214
		S957.168,291,957.168,311z"/>
	<path fill="#FFCC33" d="M1244.222,300.716c0,0,0-58.093,63.282-41.549C1338.695,267.322,1244.222,300.716,1244.222,300.716
		L1244.222,300.716z"/>
	<rect x="1131" y="108" width="4" height="192"/>
	<rect x="952" y="229" fill="#33CC33" width="84" height="6"/>
	<rect x="1217" y="229" fill="#33CC33" width="59" height="6"/>
	<path fill="#33FFFF" d="M1217,111.349V202h49.146C1266.146,202,1250,119.354,1217,111.349z"/>
	<rect x="1134" y="250" width="34" height="50"/>
	<rect x="1036" y="235" fill="#999999" width="95" height="7"/>
</g>
</svg>
